<?xml version="1.0" encoding="utf-8"?>
<!-- Generator: Adobe Illustrator 18.1.1, SVG Export Plug-In . SVG Version: 6.00 Build 0)  -->
<svg version="1.1" id="Layer_1" xmlns="http://www.w3.org/2000/svg" xmlns:xlink="http://www.w3.org/1999/xlink" x="0px" y="0px"
	 viewBox="0 0 32.3 141.3" enable-background="new 0 0 32.3 141.3" xml:space="preserve">
<path fill="#A8AAAD" d="M11.8,130.7c0-2.5,2-4.5,4.5-4.5l0,0c2.5,0,4.5,2,4.5,4.5l0,0c0,2.5-2,4.5-4.5,4.5l0,0
	C13.8,135.2,11.8,133.1,11.8,130.7z M11.8,110.7c0-2.5,2-4.5,4.5-4.5l0,0c2.5,0,4.5,2,4.5,4.5l0,0c0,2.5-2,4.5-4.5,4.5l0,0
	C13.8,115.2,11.8,113.1,11.8,110.7z M11.8,90.7c0-2.5,2-4.5,4.5-4.5l0,0c2.5,0,4.5,2,4.5,4.5l0,0c0,2.5-2,4.5-4.5,4.5l0,0
	C13.8,95.2,11.8,93.1,11.8,90.7z M11.8,70.7c0-2.5,2-4.5,4.5-4.5l0,0c2.5,0,4.5,2,4.5,4.5l0,0c0,2.5-2,4.5-4.5,4.5l0,0
	C13.8,75.2,11.8,73.1,11.8,70.7z M11.8,50.7c0-2.5,2-4.5,4.5-4.5l0,0c2.5,0,4.5,2,4.5,4.5l0,0c0,2.5-2,4.5-4.5,4.5l0,0
	C13.8,55.2,11.8,53.1,11.8,50.7z M11.8,30.7c0-2.5,2-4.5,4.5-4.5l0,0c2.5,0,4.5,2,4.5,4.5l0,0c0,2.5-2,4.5-4.5,4.5l0,0
	C13.8,35.2,11.8,33.1,11.8,30.7z M11.8,10.7c0-2.5,2-4.5,4.5-4.5l0,0c2.5,0,4.5,2,4.5,4.5l0,0c0,2.5-2,4.5-4.5,4.5l0,0
	C13.8,15.2,11.8,13.1,11.8,10.7z"/>
<path fill="#FFFFFF" d="M11.8-19.3c0-2.5,2-4.5,4.5-4.5l0,0c2.5,0,4.5,2,4.5,4.5l0,0c0,2.5-2,4.5-4.5,4.5l0,0
	C13.8-14.8,11.8-16.9,11.8-19.3z M11.8-39.3c0-2.5,2-4.5,4.5-4.5l0,0c2.5,0,4.5,2,4.5,4.5l0,0c0,2.5-2,4.5-4.5,4.5l0,0
	C13.8-34.8,11.8-36.9,11.8-39.3z M11.8-59.3c0-2.5,2-4.5,4.5-4.5l0,0c2.5,0,4.5,2,4.5,4.5l0,0c0,2.5-2,4.5-4.5,4.5l0,0
	C13.8-54.8,11.8-56.9,11.8-59.3z M11.8-79.3c0-2.5,2-4.5,4.5-4.5l0,0c2.5,0,4.5,2,4.5,4.5l0,0c0,2.5-2,4.5-4.5,4.5l0,0
	C13.8-74.8,11.8-76.9,11.8-79.3z M11.8-99.3c0-2.5,2-4.5,4.5-4.5l0,0c2.5,0,4.5,2,4.5,4.5l0,0c0,2.5-2,4.5-4.5,4.5l0,0
	C13.8-94.8,11.8-96.9,11.8-99.3z M11.8-119.3c0-2.5,2-4.5,4.5-4.5l0,0c2.5,0,4.5,2,4.5,4.5l0,0c0,2.5-2,4.5-4.5,4.5l0,0
	C13.8-114.8,11.8-116.9,11.8-119.3z M11.8-139.3c0-2.5,2-4.5,4.5-4.5l0,0c2.5,0,4.5,2,4.5,4.5l0,0c0,2.5-2,4.5-4.5,4.5l0,0
	C13.8-134.8,11.8-136.9,11.8-139.3z M11.8-159.3c0-2.5,2-4.5,4.5-4.5l0,0c2.5,0,4.5,2,4.5,4.5l0,0c0,2.5-2,4.5-4.5,4.5l0,0
	C13.8-154.8,11.8-156.9,11.8-159.3z M11.8-179.3c0-2.5,2-4.5,4.5-4.5l0,0c2.5,0,4.5,2,4.5,4.5l0,0c0,2.5-2,4.5-4.5,4.5l0,0
	C13.8-174.8,11.8-176.9,11.8-179.3z M11.8-199.3c0-2.5,2-4.5,4.5-4.5l0,0c2.5,0,4.5,2,4.5,4.5l0,0c0,2.5-2,4.5-4.5,4.5l0,0
	C13.8-194.8,11.8-196.9,11.8-199.3z M11.8-219.3c0-2.5,2-4.5,4.5-4.5l0,0c2.5,0,4.5,2,4.5,4.5l0,0c0,2.5-2,4.5-4.5,4.5l0,0
	C13.8-214.8,11.8-216.9,11.8-219.3z M11.8-239.3c0-2.5,2-4.5,4.5-4.5l0,0c2.5,0,4.5,2,4.5,4.5l0,0c0,2.5-2,4.5-4.5,4.5l0,0
	C13.8-234.8,11.8-236.9,11.8-239.3z M11.8-259.3c0-2.5,2-4.5,4.5-4.5l0,0c2.5,0,4.5,2,4.5,4.5l0,0c0,2.5-2,4.5-4.5,4.5l0,0
	C13.8-254.8,11.8-256.9,11.8-259.3z M11.8-279.3c0-2.5,2-4.5,4.5-4.5l0,0c2.5,0,4.5,2,4.5,4.5l0,0c0,2.5-2,4.5-4.5,4.5l0,0
	C13.8-274.8,11.8-276.9,11.8-279.3z M11.8-299.3c0-2.5,2-4.5,4.5-4.5l0,0c2.5,0,4.5,2,4.5,4.5l0,0c0,2.5-2,4.5-4.5,4.5l0,0
	C13.8-294.8,11.8-296.9,11.8-299.3z M11.8-319.3c0-2.5,2-4.5,4.5-4.5l0,0c2.5,0,4.5,2,4.5,4.5l0,0c0,2.5-2,4.5-4.5,4.5l0,0
	C13.8-314.8,11.8-316.9,11.8-319.3z M11.8-339.3c0-2.5,2-4.5,4.5-4.5l0,0c2.5,0,4.5,2,4.5,4.5l0,0c0,2.5-2,4.5-4.5,4.5l0,0
	C13.8-334.8,11.8-336.9,11.8-339.3z M11.8-359.3c0-2.5,2-4.5,4.5-4.5l0,0c2.5,0,4.5,2,4.5,4.5l0,0c0,2.5-2,4.5-4.5,4.5l0,0
	C13.8-354.8,11.8-356.9,11.8-359.3z M11.8-379.3c0-2.5,2-4.5,4.5-4.5l0,0c2.5,0,4.5,2,4.5,4.5l0,0c0,2.5-2,4.5-4.5,4.5l0,0
	C13.8-374.8,11.8-376.9,11.8-379.3z M11.8-399.3c0-2.5,2-4.5,4.5-4.5l0,0c2.5,0,4.5,2,4.5,4.5l0,0c0,2.5-2,4.5-4.5,4.5l0,0
	C13.8-394.8,11.8-396.9,11.8-399.3z"/>
</svg>
