<?xml version="1.0" encoding="utf-8"?>
<!-- Generator: Adobe Illustrator 18.1.1, SVG Export Plug-In . SVG Version: 6.00 Build 0)  -->
<svg version="1.1" id="Layer_1" xmlns="http://www.w3.org/2000/svg" xmlns:xlink="http://www.w3.org/1999/xlink" x="0px" y="0px"
	 viewBox="0 0 32.3 287.3" enable-background="new 0 0 32.3 287.3" xml:space="preserve">
<path fill="#A8AAAD" d="M11.8,274.9c0-2.5,2-4.5,4.5-4.5l0,0c2.5,0,4.5,2,4.5,4.5l0,0c0,2.5-2,4.5-4.5,4.5l0,0
	C13.8,279.4,11.8,277.4,11.8,274.9z M11.8,254.9c0-2.5,2-4.5,4.5-4.5l0,0c2.5,0,4.5,2,4.5,4.5l0,0c0,2.5-2,4.5-4.5,4.5l0,0
	C13.8,259.4,11.8,257.4,11.8,254.9z M11.8,234.9c0-2.5,2-4.5,4.5-4.5l0,0c2.5,0,4.5,2,4.5,4.5l0,0c0,2.5-2,4.5-4.5,4.5l0,0
	C13.8,239.4,11.8,237.4,11.8,234.9z M11.8,214.9c0-2.5,2-4.5,4.5-4.5l0,0c2.5,0,4.5,2,4.5,4.5l0,0c0,2.5-2,4.5-4.5,4.5l0,0
	C13.8,219.4,11.8,217.4,11.8,214.9z M11.8,194.9c0-2.5,2-4.5,4.5-4.5l0,0c2.5,0,4.5,2,4.5,4.5l0,0c0,2.5-2,4.5-4.5,4.5l0,0
	C13.8,199.4,11.8,197.4,11.8,194.9z M11.8,174.9c0-2.5,2-4.5,4.5-4.5l0,0c2.5,0,4.5,2,4.5,4.5l0,0c0,2.5-2,4.5-4.5,4.5l0,0
	C13.8,179.4,11.8,177.4,11.8,174.9z M11.8,154.9c0-2.5,2-4.5,4.5-4.5l0,0c2.5,0,4.5,2,4.5,4.5l0,0c0,2.5-2,4.5-4.5,4.5l0,0
	C13.8,159.4,11.8,157.4,11.8,154.9z"/>
<path fill="#FFFFFF" d="M181.2,265.3c0-2.5,2-4.5,4.5-4.5l0,0c2.5,0,4.5,2,4.5,4.5l0,0c0,2.5-2,4.5-4.5,4.5l0,0
	C183.2,269.8,181.2,267.8,181.2,265.3z M181.2,245.3c0-2.5,2-4.5,4.5-4.5l0,0c2.5,0,4.5,2,4.5,4.5l0,0c0,2.5-2,4.5-4.5,4.5l0,0
	C183.2,249.8,181.2,247.8,181.2,245.3z M181.2,225.3c0-2.5,2-4.5,4.5-4.5l0,0c2.5,0,4.5,2,4.5,4.5l0,0c0,2.5-2,4.5-4.5,4.5l0,0
	C183.2,229.8,181.2,227.8,181.2,225.3z M181.2,205.3c0-2.5,2-4.5,4.5-4.5l0,0c2.5,0,4.5,2,4.5,4.5l0,0c0,2.5-2,4.5-4.5,4.5l0,0
	C183.2,209.8,181.2,207.8,181.2,205.3z M181.2,185.3c0-2.5,2-4.5,4.5-4.5l0,0c2.5,0,4.5,2,4.5,4.5l0,0c0,2.5-2,4.5-4.5,4.5l0,0
	C183.2,189.8,181.2,187.8,181.2,185.3z M181.2,165.3c0-2.5,2-4.5,4.5-4.5l0,0c2.5,0,4.5,2,4.5,4.5l0,0c0,2.5-2,4.5-4.5,4.5l0,0
	C183.2,169.8,181.2,167.8,181.2,165.3z M181.2,145.3c0-2.5,2-4.5,4.5-4.5l0,0c2.5,0,4.5,2,4.5,4.5l0,0c0,2.5-2,4.5-4.5,4.5l0,0
	C183.2,149.8,181.2,147.8,181.2,145.3z M181.2,125.3c0-2.5,2-4.5,4.5-4.5l0,0c2.5,0,4.5,2,4.5,4.5l0,0c0,2.5-2,4.5-4.5,4.5l0,0
	C183.2,129.8,181.2,127.8,181.2,125.3z M181.2,105.3c0-2.5,2-4.5,4.5-4.5l0,0c2.5,0,4.5,2,4.5,4.5l0,0c0,2.5-2,4.5-4.5,4.5l0,0
	C183.2,109.8,181.2,107.8,181.2,105.3z M181.2,85.3c0-2.5,2-4.5,4.5-4.5l0,0c2.5,0,4.5,2,4.5,4.5l0,0c0,2.5-2,4.5-4.5,4.5l0,0
	C183.2,89.8,181.2,87.8,181.2,85.3z M181.2,65.3c0-2.5,2-4.5,4.5-4.5l0,0c2.5,0,4.5,2,4.5,4.5l0,0c0,2.5-2,4.5-4.5,4.5l0,0
	C183.2,69.8,181.2,67.8,181.2,65.3z M181.2,45.3c0-2.5,2-4.5,4.5-4.5l0,0c2.5,0,4.5,2,4.5,4.5l0,0c0,2.5-2,4.5-4.5,4.5l0,0
	C183.2,49.8,181.2,47.8,181.2,45.3z M181.2,25.3c0-2.5,2-4.5,4.5-4.5l0,0c2.5,0,4.5,2,4.5,4.5l0,0c0,2.5-2,4.5-4.5,4.5l0,0
	C183.2,29.8,181.2,27.8,181.2,25.3z M181.2,5.3c0-2.5,2-4.5,4.5-4.5l0,0c2.5,0,4.5,2,4.5,4.5l0,0c0,2.5-2,4.5-4.5,4.5l0,0
	C183.2,9.8,181.2,7.8,181.2,5.3z M181.2-14.7c0-2.5,2-4.5,4.5-4.5l0,0c2.5,0,4.5,2,4.5,4.5l0,0c0,2.5-2,4.5-4.5,4.5l0,0
	C183.2-10.2,181.2-12.2,181.2-14.7z M181.2-34.7c0-2.5,2-4.5,4.5-4.5l0,0c2.5,0,4.5,2,4.5,4.5l0,0c0,2.5-2,4.5-4.5,4.5l0,0
	C183.2-30.2,181.2-32.2,181.2-34.7z M181.2-54.7c0-2.5,2-4.5,4.5-4.5l0,0c2.5,0,4.5,2,4.5,4.5l0,0c0,2.5-2,4.5-4.5,4.5l0,0
	C183.2-50.2,181.2-52.2,181.2-54.7z M181.2-74.7c0-2.5,2-4.5,4.5-4.5l0,0c2.5,0,4.5,2,4.5,4.5l0,0c0,2.5-2,4.5-4.5,4.5l0,0
	C183.2-70.2,181.2-72.2,181.2-74.7z M181.2-94.7c0-2.5,2-4.5,4.5-4.5l0,0c2.5,0,4.5,2,4.5,4.5l0,0c0,2.5-2,4.5-4.5,4.5l0,0
	C183.2-90.2,181.2-92.2,181.2-94.7z M181.2-114.7c0-2.5,2-4.5,4.5-4.5l0,0c2.5,0,4.5,2,4.5,4.5l0,0c0,2.5-2,4.5-4.5,4.5l0,0
	C183.2-110.2,181.2-112.2,181.2-114.7z"/>
<path fill="#A8AAAD" d="M11.8,134.5c0-2.5,2-4.5,4.5-4.5l0,0c2.5,0,4.5,2,4.5,4.5l0,0c0,2.5-2,4.5-4.5,4.5l0,0
	C13.8,139,11.8,137,11.8,134.5z M11.8,114.5c0-2.5,2-4.5,4.5-4.5l0,0c2.5,0,4.5,2,4.5,4.5l0,0c0,2.5-2,4.5-4.5,4.5l0,0
	C13.8,119,11.8,117,11.8,114.5z M11.8,94.5c0-2.5,2-4.5,4.5-4.5l0,0c2.5,0,4.5,2,4.5,4.5l0,0c0,2.5-2,4.5-4.5,4.5l0,0
	C13.8,99,11.8,97,11.8,94.5z M11.8,74.5c0-2.5,2-4.5,4.5-4.5l0,0c2.5,0,4.5,2,4.5,4.5l0,0c0,2.5-2,4.5-4.5,4.5l0,0
	C13.8,79,11.8,77,11.8,74.5z M11.8,54.5c0-2.5,2-4.5,4.5-4.5l0,0c2.5,0,4.5,2,4.5,4.5l0,0c0,2.5-2,4.5-4.5,4.5l0,0
	C13.8,59,11.8,57,11.8,54.5z M11.8,34.5c0-2.5,2-4.5,4.5-4.5l0,0c2.5,0,4.5,2,4.5,4.5l0,0c0,2.5-2,4.5-4.5,4.5l0,0
	C13.8,39,11.8,37,11.8,34.5z M11.8,14.5c0-2.5,2-4.5,4.5-4.5l0,0c2.5,0,4.5,2,4.5,4.5l0,0c0,2.5-2,4.5-4.5,4.5l0,0
	C13.8,19,11.8,17,11.8,14.5z"/>
</svg>
