<?xml version="1.0" encoding="utf-8"?>
<!-- Generator: Adobe Illustrator 18.1.1, SVG Export Plug-In . SVG Version: 6.00 Build 0)  -->
<svg version="1.1" id="Layer_1" xmlns="http://www.w3.org/2000/svg" xmlns:xlink="http://www.w3.org/1999/xlink" x="0px" y="0px"
	 viewBox="0 0 75 75" enable-background="new 0 0 75 75" xml:space="preserve">
<g>
	<g>
		<path fill="#4F4F4F" d="M37.5,0.7c20.6,0,36.9,16.6,36.9,37.4c0,20-16.8,36.5-37,36.4c-20.3,0-36.8-16.6-36.8-37
			C0.6,17.1,17.2,0.6,37.5,0.7z M32,53.7c8.7-9.6,17.3-19.3,26-29c-1.2-1.1-2.2-2-3.4-3.1c-7.7,8.5-15.3,17-23,25.6
			c-3.5-3.5-6.9-6.9-10.1-10.1c-1.1,1-2.1,2-3.1,3C22.9,44.5,27.4,49.1,32,53.7z"/>
	</g>
	<path fill="#CECCCC" d="M32,53.7c8.7-9.6,17.3-19.3,26-29c-1.2-1.1-3.1-3.2-4.2-4.3C46.1,29,39.3,36.6,31.6,45.2
		c-3.5-3.5-5.9-6.1-9.1-9.3c-1.1,1-3.1,3.2-4.1,4.1C22.9,44.5,27.4,49.1,32,53.7z"/>
</g>
</svg>
