<?xml version="1.0" encoding="utf-8"?>
<!-- Generator: Adobe Illustrator 18.1.1, SVG Export Plug-In . SVG Version: 6.00 Build 0)  -->
<svg version="1.1" id="Layer_1" xmlns="http://www.w3.org/2000/svg" xmlns:xlink="http://www.w3.org/1999/xlink" x="0px" y="0px"
	 viewBox="0 0 32.3 410.7" enable-background="new 0 0 32.3 410.7" xml:space="preserve">
<path fill="#A8AAAD" d="M11.8,538.7c0-2.5,2-4.5,4.5-4.5l0,0c2.5,0,4.5,2,4.5,4.5l0,0c0,2.5-2,4.5-4.5,4.5l0,0
	C13.8,543.2,11.8,541.1,11.8,538.7z M11.8,518.7c0-2.5,2-4.5,4.5-4.5l0,0c2.5,0,4.5,2,4.5,4.5l0,0c0,2.5-2,4.5-4.5,4.5l0,0
	C13.8,523.2,11.8,521.1,11.8,518.7z M11.8,498.7c0-2.5,2-4.5,4.5-4.5l0,0c2.5,0,4.5,2,4.5,4.5l0,0c0,2.5-2,4.5-4.5,4.5l0,0
	C13.8,503.2,11.8,501.1,11.8,498.7z M11.8,478.7c0-2.5,2-4.5,4.5-4.5l0,0c2.5,0,4.5,2,4.5,4.5l0,0c0,2.5-2,4.5-4.5,4.5l0,0
	C13.8,483.2,11.8,481.1,11.8,478.7z M11.8,458.7c0-2.5,2-4.5,4.5-4.5l0,0c2.5,0,4.5,2,4.5,4.5l0,0c0,2.5-2,4.5-4.5,4.5l0,0
	C13.8,463.2,11.8,461.1,11.8,458.7z M11.8,438.7c0-2.5,2-4.5,4.5-4.5l0,0c2.5,0,4.5,2,4.5,4.5l0,0c0,2.5-2,4.5-4.5,4.5l0,0
	C13.8,443.2,11.8,441.1,11.8,438.7z M11.8,418.7c0-2.5,2-4.5,4.5-4.5l0,0c2.5,0,4.5,2,4.5,4.5l0,0c0,2.5-2,4.5-4.5,4.5l0,0
	C13.8,423.2,11.8,421.1,11.8,418.7z"/>
<path fill="#FFFFFF" d="M11.8,388.7c0-2.5,2-4.5,4.5-4.5l0,0c2.5,0,4.5,2,4.5,4.5l0,0c0,2.5-2,4.5-4.5,4.5l0,0
	C13.8,393.2,11.8,391.1,11.8,388.7z M11.8,368.7c0-2.5,2-4.5,4.5-4.5l0,0c2.5,0,4.5,2,4.5,4.5l0,0c0,2.5-2,4.5-4.5,4.5l0,0
	C13.8,373.2,11.8,371.1,11.8,368.7z M11.8,348.7c0-2.5,2-4.5,4.5-4.5l0,0c2.5,0,4.5,2,4.5,4.5l0,0c0,2.5-2,4.5-4.5,4.5l0,0
	C13.8,353.2,11.8,351.1,11.8,348.7z M11.8,328.7c0-2.5,2-4.5,4.5-4.5l0,0c2.5,0,4.5,2,4.5,4.5l0,0c0,2.5-2,4.5-4.5,4.5l0,0
	C13.8,333.2,11.8,331.1,11.8,328.7z M11.8,308.7c0-2.5,2-4.5,4.5-4.5l0,0c2.5,0,4.5,2,4.5,4.5l0,0c0,2.5-2,4.5-4.5,4.5l0,0
	C13.8,313.2,11.8,311.1,11.8,308.7z M11.8,288.7c0-2.5,2-4.5,4.5-4.5l0,0c2.5,0,4.5,2,4.5,4.5l0,0c0,2.5-2,4.5-4.5,4.5l0,0
	C13.8,293.2,11.8,291.1,11.8,288.7z M11.8,268.7c0-2.5,2-4.5,4.5-4.5l0,0c2.5,0,4.5,2,4.5,4.5l0,0c0,2.5-2,4.5-4.5,4.5l0,0
	C13.8,273.2,11.8,271.1,11.8,268.7z M11.8,248.7c0-2.5,2-4.5,4.5-4.5l0,0c2.5,0,4.5,2,4.5,4.5l0,0c0,2.5-2,4.5-4.5,4.5l0,0
	C13.8,253.2,11.8,251.1,11.8,248.7z M11.8,228.7c0-2.5,2-4.5,4.5-4.5l0,0c2.5,0,4.5,2,4.5,4.5l0,0c0,2.5-2,4.5-4.5,4.5l0,0
	C13.8,233.2,11.8,231.1,11.8,228.7z M11.8,208.7c0-2.5,2-4.5,4.5-4.5l0,0c2.5,0,4.5,2,4.5,4.5l0,0c0,2.5-2,4.5-4.5,4.5l0,0
	C13.8,213.2,11.8,211.1,11.8,208.7z M11.8,188.7c0-2.5,2-4.5,4.5-4.5l0,0c2.5,0,4.5,2,4.5,4.5l0,0c0,2.5-2,4.5-4.5,4.5l0,0
	C13.8,193.2,11.8,191.1,11.8,188.7z M11.8,168.7c0-2.5,2-4.5,4.5-4.5l0,0c2.5,0,4.5,2,4.5,4.5l0,0c0,2.5-2,4.5-4.5,4.5l0,0
	C13.8,173.2,11.8,171.1,11.8,168.7z M11.8,148.7c0-2.5,2-4.5,4.5-4.5l0,0c2.5,0,4.5,2,4.5,4.5l0,0c0,2.5-2,4.5-4.5,4.5l0,0
	C13.8,153.2,11.8,151.1,11.8,148.7z M11.8,128.7c0-2.5,2-4.5,4.5-4.5l0,0c2.5,0,4.5,2,4.5,4.5l0,0c0,2.5-2,4.5-4.5,4.5l0,0
	C13.8,133.2,11.8,131.1,11.8,128.7z M11.8,108.7c0-2.5,2-4.5,4.5-4.5l0,0c2.5,0,4.5,2,4.5,4.5l0,0c0,2.5-2,4.5-4.5,4.5l0,0
	C13.8,113.2,11.8,111.1,11.8,108.7z M11.8,88.7c0-2.5,2-4.5,4.5-4.5l0,0c2.5,0,4.5,2,4.5,4.5l0,0c0,2.5-2,4.5-4.5,4.5l0,0
	C13.8,93.2,11.8,91.1,11.8,88.7z M11.8,68.7c0-2.5,2-4.5,4.5-4.5l0,0c2.5,0,4.5,2,4.5,4.5l0,0c0,2.5-2,4.5-4.5,4.5l0,0
	C13.8,73.2,11.8,71.1,11.8,68.7z M11.8,48.7c0-2.5,2-4.5,4.5-4.5l0,0c2.5,0,4.5,2,4.5,4.5l0,0c0,2.5-2,4.5-4.5,4.5l0,0
	C13.8,53.2,11.8,51.1,11.8,48.7z M11.8,28.7c0-2.5,2-4.5,4.5-4.5l0,0c2.5,0,4.5,2,4.5,4.5l0,0c0,2.5-2,4.5-4.5,4.5l0,0
	C13.8,33.2,11.8,31.1,11.8,28.7z M11.8,8.7c0-2.5,2-4.5,4.5-4.5l0,0c2.5,0,4.5,2,4.5,4.5l0,0c0,2.5-2,4.5-4.5,4.5l0,0
	C13.8,13.2,11.8,11.1,11.8,8.7z"/>
</svg>
