<?xml version="1.0" encoding="utf-8"?>
<!-- Generator: Adobe Illustrator 18.1.1, SVG Export Plug-In . SVG Version: 6.00 Build 0)  -->
<svg version="1.1" id="Layer_1" xmlns="http://www.w3.org/2000/svg" xmlns:xlink="http://www.w3.org/1999/xlink" x="0px" y="0px"
	 viewBox="0 0 1440 579" enable-background="new 0 0 1440 579" xml:space="preserve">
<g>
	<ellipse opacity="0.11" fill="#231F20" cx="-14.4" cy="400.1" rx="67.5" ry="2.7"/>
	<g opacity="0.11">
		<path fill="#231F20" d="M50.4,381c0,6.4,0,12.4,0,18.5c-5.4,0-10.8,0-16.6,0c0.3-6.2,0.5-12.2,0.8-18.5c-1.5,0-2.7,0-3.9,0
			c-18.4,0-36.7,0-55.1,0c-1.1,0-2.3,0.1-3.4-0.1c-3.2-0.5-5.5-3.3-5.4-6.3c0.1-3.1,2.5-5.7,5.8-6c2.8-0.2,5.6,0,8.4-0.3
			c3.5-0.4,5.5-2.8,5.5-6.1c0-3.2-2.1-5.6-5.5-6.1c-4.7-0.7-7.1-3-6.8-6.7c0.2-3.7,3.1-5.9,7.9-6c1.5,0,2.9,0.1,4.4,0
			c3-0.2,5.3-2.3,5.8-5.1c0.5-2.9-1.3-5.8-4.3-6.8c-1.1-0.4-2.2-0.5-3.2-1c-2.5-1.2-3.7-3.3-3.5-6c0.2-2.8,1.7-4.9,4.6-5.5
			c1.9-0.4,4-0.3,6-0.4c3.4-0.2,5.8-2.2,6.2-5.4c0.4-3-1.6-5.8-4.8-6.7c-0.6-0.2-1.3-0.3-2-0.5c-3.2-1-4.8-3.3-4.5-6.6
			c0.2-3,2.5-5.3,5.7-5.6c1.8-0.2,3.6,0,5.4-0.1c3.2-0.2,5.2-2.1,5.8-5.1c0.6-2.9-1.2-5.7-4.2-6.8c-0.8-0.3-1.7-0.4-2.6-0.7
			c-2.8-0.9-4.7-3.6-4.4-6.4c0.3-3,2.6-5.4,5.7-5.7c1.7-0.2,3.4,0,5-0.1c3.3-0.2,5.6-2.4,5.9-5.4c0.4-3.2-1.4-5.8-4.7-6.8
			c-0.2-0.1-0.4-0.1-0.7-0.2c-4.2-1.1-6.3-3.5-6-6.8c0.3-3.6,3-5.7,7.4-5.8c0.9,0,1.8,0,2.7,0c3-0.1,5.2-1.5,6-4.5
			c0.8-3-0.2-5.5-3-7.1c-0.1-0.1-0.2-0.1-0.3-0.2c-4.8-2.9-6.3-5.3-5.3-8.6c1-3.3,4-4.9,8.7-4.6c3.8,0.3,6.2-1.8,6.8-5.1
			c0.6-3.2-1-5.7-4.7-7.1c-0.7-0.3-1.5-0.5-2.2-0.9c-2.7-1.4-3.9-3.7-3.4-6.7c0.6-2.9,2.5-4.7,5.5-5c1.9-0.2,3.8,0,5.7-0.1
			c3-0.3,5.1-1.8,5.8-4.8c0.7-3-0.5-5.2-3.1-6.8c-0.9-0.5-1.8-0.8-2.7-1.3c-2.8-1.4-4.3-3.6-3.8-6.8c0.4-2.9,2.8-4.9,6.1-5.2
			c1.2-0.1,2.5-0.2,3.6-0.6c2.7-1,4-3.1,3.9-6c-0.1-2.8-1.6-4.6-4.1-5.5c-1-0.4-2.2-0.4-3.2-0.9c-2.8-1.2-4.2-3.3-3.9-6.3
			c0.3-3.1,2.2-5.1,5.3-5.6c1.1-0.2,2.2-0.1,3.4-0.2c3.2-0.3,5.5-2.5,5.8-5.5c0.4-3.3-1.4-5.8-4.8-6.7c-1-0.3-2-0.3-2.9-0.7
			c-2.8-1.2-4.2-3.3-3.9-6.4c0.3-3,2.1-5.3,5.1-5.4c7.8-0.3,15.7-0.2,23.5,0c2.9,0.1,5,2.7,5.2,5.7c0.2,3-1.6,5.6-4.4,6.3
			c-0.3,0.1-0.7,0.1-1,0.2c-5,0.9-7.2,3.1-6.8,7c0.4,3.6,3,5.5,7.8,5.5c1.6,0,3.1-0.1,4.7,0.1c3.1,0.4,5.4,2.8,5.6,5.8
			c0.2,2.8-1.7,5.4-4.6,6.3c-0.7,0.2-1.5,0.3-2.3,0.5c-3.1,0.8-5.1,3.4-4.9,6.3c0.2,3,2.4,5.3,5.6,5.8c1.3,0.2,2.7,0.1,4,0.2
			c3.2,0.2,5.2,1.9,5.9,5c0.6,3.1-0.7,5.4-3.5,6.9c-1,0.5-2.1,0.8-3.1,1.3c-2.6,1.5-3.7,3.9-3,6.8c0.6,2.9,2.6,4.4,5.4,4.7
			c1.5,0.2,3.1,0.1,4.7,0.1c4.1,0,6.6,1.7,7.3,5c0.7,3.2-1.1,5.9-4.9,7.3c-0.6,0.2-1.3,0.4-1.9,0.7c-2.7,1.4-4,3.6-3.5,6.6
			c0.5,3,2.5,4.7,5.4,5.1c1.3,0.2,2.7,0,4,0.1c3,0.1,5.2,1.6,6,4.5c0.8,2.9-0.1,5.3-2.6,7c-1.1,0.7-2.3,1.3-3.4,2.1
			c-2.4,1.7-3.2,4-2.5,6.8c0.7,2.8,2.7,4.3,5.6,4.5c1.6,0.1,3.1-0.1,4.7,0.1c3.4,0.4,5.6,2.8,5.8,6c0.1,3-1.8,5.4-5,6.3
			c-1,0.3-2,0.4-2.9,0.8c-2.7,1.3-4,3.6-3.4,6.6c0.5,2.8,2.3,4.6,5.1,5c1.8,0.2,3.6,0.1,5.4,0.2c3.3,0.2,5.7,2.5,6.1,5.7
			c0.3,2.9-1.6,5.6-4.7,6.5c-1,0.3-2,0.5-2.9,0.9c-2.7,1.3-4.1,3.6-3.6,6.5c0.5,2.9,2.4,4.8,5.4,5.1c1.3,0.2,2.7,0.1,4,0.1
			c4.3,0.1,6.9,2,7.4,5.3c0.5,3.8-1.4,6.2-5.7,7.3c-0.5,0.1-1.1,0.2-1.6,0.4c-2.8,1.2-4.1,3.4-3.9,6.4c0.3,3,2.5,5.1,5.5,5.4
			c2.1,0.2,4.3,0,6.3,0.4c3,0.5,4.7,2.6,4.9,5.6c0.2,2.8-1.1,5-3.8,6.1c-0.8,0.3-1.7,0.5-2.6,0.8c-3.2,1-5.1,3.8-4.6,6.9
			c0.5,3,2.9,5,6.1,5.1c2,0.1,4-0.1,6,0.2c3.6,0.5,5.9,3,5.9,6.2c0,3.2-2.3,5.7-5.9,6.3c-4.6,0.8-6.7,2.9-6.5,6.5
			c0.2,3.7,2.7,5.8,7.5,5.9c1.8,0.1,3.6,0,5.4,0c3.9,0.1,6.6,2.6,6.8,6.1c0.1,3.5-2.7,6.4-6.8,6.4c-11.6,0.1-23.3,0-34.9,0
			C67.5,381,59,381,50.4,381z"/>
	</g>
</g>
<g>
	<ellipse opacity="0.11" fill="#231F20" cx="443.3" cy="230.9" rx="42" ry="2.2"/>
	<g opacity="0.1">
		<path fill="#231F20" d="M484.4,221.3c0,3.6,0,7,0,10.5c-3.1,0-6.2,0-9.4,0c0.2-3.5,0.3-6.9,0.5-10.5c-0.8,0-1.5,0-2.2,0
			c-10.4,0-20.9,0-31.3,0c-0.6,0-1.3,0-1.9-0.1c-1.8-0.3-3.1-1.9-3.1-3.6c0.1-1.8,1.4-3.3,3.3-3.4c1.6-0.1,3.2,0,4.8-0.2
			c2-0.2,3.1-1.6,3.1-3.4c0-1.8-1.2-3.2-3.1-3.5c-2.7-0.4-4-1.7-3.9-3.8c0.1-2.1,1.8-3.4,4.5-3.4c0.8,0,1.7,0,2.5,0
			c1.7-0.1,3-1.3,3.3-2.9c0.3-1.7-0.8-3.3-2.4-3.9c-0.6-0.2-1.2-0.3-1.8-0.6c-1.4-0.7-2.1-1.9-2-3.4c0.1-1.6,1-2.8,2.6-3.1
			c1.1-0.2,2.3-0.2,3.4-0.2c2-0.1,3.3-1.3,3.5-3.1c0.2-1.7-0.9-3.3-2.7-3.8c-0.4-0.1-0.7-0.1-1.1-0.3c-1.8-0.6-2.7-1.9-2.6-3.7
			c0.1-1.7,1.4-3,3.2-3.2c1-0.1,2,0,3.1-0.1c1.8-0.1,2.9-1.2,3.3-2.9c0.3-1.7-0.7-3.3-2.4-3.9c-0.5-0.2-1-0.2-1.5-0.4
			c-1.6-0.5-2.7-2.1-2.5-3.6c0.2-1.7,1.5-3.1,3.3-3.2c0.9-0.1,1.9,0,2.9-0.1c1.9-0.1,3.2-1.3,3.4-3.1c0.2-1.8-0.8-3.3-2.7-3.8
			c-0.1,0-0.2-0.1-0.4-0.1c-2.4-0.6-3.6-2-3.4-3.9c0.2-2,1.7-3.2,4.2-3.3c0.5,0,1,0,1.5,0c1.7-0.1,2.9-0.9,3.4-2.5
			c0.5-1.7-0.1-3.1-1.7-4c-0.1,0-0.1-0.1-0.2-0.1c-2.7-1.6-3.6-3-3-4.9c0.6-1.9,2.3-2.8,5-2.6c2.2,0.2,3.5-1,3.9-2.9
			c0.3-1.8-0.6-3.2-2.7-4c-0.4-0.2-0.8-0.3-1.2-0.5c-1.5-0.8-2.2-2.1-1.9-3.8c0.3-1.7,1.4-2.7,3.1-2.9c1.1-0.1,2.2,0,3.2-0.1
			c1.7-0.1,2.9-1,3.3-2.7c0.4-1.7-0.3-3-1.8-3.9c-0.5-0.3-1-0.5-1.6-0.7c-1.6-0.8-2.4-2.1-2.2-3.9c0.2-1.7,1.6-2.8,3.5-3
			c0.7-0.1,1.4-0.1,2.1-0.3c1.5-0.6,2.3-1.8,2.2-3.4c-0.1-1.6-0.9-2.6-2.4-3.1c-0.6-0.2-1.3-0.3-1.8-0.5c-1.6-0.7-2.4-1.9-2.2-3.6
			c0.2-1.8,1.2-2.9,3-3.2c0.6-0.1,1.3,0,1.9-0.1c1.8-0.2,3.1-1.4,3.3-3.1c0.2-1.9-0.8-3.3-2.7-3.8c-0.6-0.2-1.1-0.2-1.7-0.4
			c-1.6-0.7-2.4-1.9-2.2-3.6c0.2-1.7,1.2-3,2.9-3.1c4.5-0.2,8.9-0.1,13.4,0c1.7,0,2.9,1.6,2.9,3.2c0.1,1.7-0.9,3.2-2.5,3.6
			c-0.2,0.1-0.4,0.1-0.6,0.1c-2.9,0.5-4.1,1.8-3.9,4c0.2,2.1,1.7,3.1,4.4,3.2c0.9,0,1.8,0,2.7,0.1c1.8,0.2,3,1.6,3.2,3.3
			c0.1,1.6-1,3.1-2.6,3.6c-0.4,0.1-0.9,0.2-1.3,0.3c-1.8,0.5-2.9,1.9-2.8,3.6c0.1,1.7,1.4,3,3.2,3.3c0.8,0.1,1.5,0,2.3,0.1
			c1.8,0.1,3,1.1,3.3,2.8c0.4,1.8-0.4,3.1-2,3.9c-0.6,0.3-1.2,0.5-1.7,0.8c-1.5,0.9-2.1,2.2-1.7,3.9c0.4,1.6,1.5,2.5,3.1,2.7
			c0.9,0.1,1.8,0,2.7,0.1c2.3,0,3.8,1,4.1,2.9c0.4,1.8-0.6,3.3-2.8,4.2c-0.4,0.1-0.7,0.2-1.1,0.4c-1.5,0.8-2.3,2-2,3.8
			c0.3,1.7,1.4,2.7,3.1,2.9c0.8,0.1,1.5,0,2.3,0.1c1.7,0.1,2.9,0.9,3.4,2.5c0.5,1.6,0,3-1.5,4c-0.6,0.4-1.3,0.8-1.9,1.2
			c-1.3,1-1.8,2.3-1.4,3.9c0.4,1.6,1.6,2.4,3.2,2.6c0.9,0.1,1.8,0,2.7,0.1c1.9,0.2,3.2,1.6,3.3,3.4c0.1,1.7-1,3.1-2.8,3.6
			c-0.6,0.2-1.1,0.2-1.6,0.5c-1.6,0.8-2.3,2.1-2,3.8c0.3,1.6,1.3,2.6,2.9,2.8c1,0.1,2,0,3.1,0.1c1.9,0.1,3.3,1.4,3.4,3.2
			c0.2,1.6-0.9,3.2-2.7,3.7c-0.5,0.2-1.1,0.3-1.6,0.5c-1.6,0.7-2.3,2-2,3.7c0.3,1.7,1.3,2.7,3.1,2.9c0.8,0.1,1.5,0,2.3,0.1
			c2.4,0,3.9,1.1,4.2,3c0.3,2.2-0.8,3.5-3.3,4.1c-0.3,0.1-0.6,0.1-0.9,0.2c-1.6,0.7-2.3,1.9-2.2,3.6c0.2,1.7,1.4,2.9,3.1,3.1
			c1.2,0.1,2.4,0,3.6,0.2c1.7,0.3,2.7,1.5,2.8,3.2c0.1,1.6-0.7,2.8-2.2,3.5c-0.5,0.2-1,0.3-1.5,0.4c-1.8,0.6-2.9,2.2-2.6,3.9
			c0.3,1.7,1.6,2.9,3.5,2.9c1.1,0,2.3,0,3.4,0.1c2.1,0.3,3.4,1.7,3.4,3.5c0,1.8-1.3,3.2-3.3,3.6c-2.6,0.4-3.8,1.6-3.7,3.7
			c0.1,2.1,1.6,3.3,4.3,3.4c1,0,2,0,3.1,0c2.2,0.1,3.8,1.5,3.8,3.4c0.1,2-1.6,3.6-3.8,3.6c-6.6,0-13.2,0-19.9,0
			C494.2,221.3,489.3,221.3,484.4,221.3z"/>
	</g>
</g>
<g>
	<ellipse opacity="0.11" fill="#231F20" cx="101.3" cy="198.6" rx="24.5" ry="3"/>
	<g opacity="0.15">
		<path fill="#231F20" d="M124.2,191.3c0,2.6,0,5.1,0,7.6c-2.2,0-4.4,0-6.8,0c0.1-2.5,0.2-5,0.3-7.6c-0.6,0-1.1,0-1.6,0
			c-7.5,0-15.1,0-22.6,0c-0.5,0-0.9,0-1.4,0c-1.3-0.2-2.3-1.4-2.2-2.6c0-1.3,1-2.4,2.4-2.5c1.1-0.1,2.3,0,3.4-0.1
			c1.4-0.1,2.3-1.1,2.3-2.5c0-1.3-0.9-2.3-2.3-2.5c-1.9-0.3-2.9-1.3-2.8-2.7c0.1-1.5,1.3-2.4,3.2-2.5c0.6,0,1.2,0,1.8,0
			c1.2-0.1,2.2-0.9,2.4-2.1c0.2-1.2-0.5-2.4-1.8-2.8c-0.4-0.1-0.9-0.2-1.3-0.4c-1-0.5-1.5-1.4-1.4-2.5c0.1-1.2,0.7-2,1.9-2.3
			c0.8-0.2,1.6-0.1,2.5-0.2c1.4-0.1,2.4-0.9,2.6-2.2c0.2-1.2-0.6-2.4-2-2.8c-0.3-0.1-0.5-0.1-0.8-0.2c-1.3-0.4-2-1.4-1.8-2.7
			c0.1-1.2,1-2.2,2.3-2.3c0.7-0.1,1.5,0,2.2,0c1.3-0.1,2.1-0.8,2.4-2.1c0.2-1.2-0.5-2.4-1.7-2.8c-0.3-0.1-0.7-0.2-1.1-0.3
			c-1.2-0.4-1.9-1.5-1.8-2.6c0.1-1.2,1.1-2.2,2.4-2.3c0.7-0.1,1.4,0,2.1-0.1c1.3-0.1,2.3-1,2.4-2.2c0.1-1.3-0.6-2.4-1.9-2.8
			c-0.1,0-0.2,0-0.3-0.1c-1.7-0.5-2.6-1.4-2.5-2.8c0.1-1.5,1.2-2.3,3-2.4c0.4,0,0.7,0,1.1,0c1.2,0,2.1-0.6,2.4-1.8
			c0.3-1.2-0.1-2.3-1.2-2.9c0,0-0.1,0-0.1-0.1c-2-1.2-2.6-2.2-2.2-3.5c0.4-1.4,1.6-2,3.6-1.9c1.6,0.1,2.6-0.7,2.8-2.1
			c0.2-1.3-0.4-2.3-1.9-2.9c-0.3-0.1-0.6-0.2-0.9-0.4c-1.1-0.6-1.6-1.5-1.4-2.7c0.2-1.2,1-2,2.3-2.1c0.8-0.1,1.6,0,2.3,0
			c1.2-0.1,2.1-0.8,2.4-2c0.3-1.2-0.2-2.2-1.3-2.8c-0.4-0.2-0.8-0.3-1.1-0.5c-1.1-0.6-1.7-1.5-1.6-2.8c0.2-1.2,1.2-2,2.5-2.1
			c0.5,0,1-0.1,1.5-0.2c1.1-0.4,1.7-1.3,1.6-2.5c0-1.1-0.6-1.9-1.7-2.3c-0.4-0.2-0.9-0.2-1.3-0.4c-1.1-0.5-1.7-1.4-1.6-2.6
			c0.1-1.3,0.9-2.1,2.2-2.3c0.5-0.1,0.9,0,1.4-0.1c1.3-0.1,2.3-1,2.4-2.2c0.1-1.4-0.6-2.4-2-2.7c-0.4-0.1-0.8-0.1-1.2-0.3
			c-1.1-0.5-1.7-1.4-1.6-2.6c0.1-1.2,0.8-2.2,2.1-2.2c3.2-0.1,6.4-0.1,9.7,0c1.2,0,2.1,1.1,2.1,2.3c0.1,1.2-0.7,2.3-1.8,2.6
			c-0.1,0-0.3,0-0.4,0.1c-2.1,0.4-3,1.3-2.8,2.9c0.1,1.5,1.2,2.3,3.2,2.3c0.6,0,1.3,0,1.9,0.1c1.3,0.1,2.2,1.1,2.3,2.4
			c0.1,1.1-0.7,2.2-1.9,2.6c-0.3,0.1-0.6,0.1-0.9,0.2c-1.3,0.3-2.1,1.4-2,2.6c0.1,1.2,1,2.2,2.3,2.4c0.5,0.1,1.1,0,1.7,0.1
			c1.3,0.1,2.2,0.8,2.4,2c0.3,1.3-0.3,2.2-1.5,2.8c-0.4,0.2-0.9,0.3-1.3,0.6c-1.1,0.6-1.5,1.6-1.2,2.8c0.3,1.2,1.1,1.8,2.2,1.9
			c0.6,0.1,1.3,0,1.9,0c1.7,0,2.7,0.7,3,2.1c0.3,1.3-0.5,2.4-2,3c-0.3,0.1-0.5,0.2-0.8,0.3c-1.1,0.6-1.6,1.5-1.4,2.7
			c0.2,1.2,1,1.9,2.2,2.1c0.5,0.1,1.1,0,1.7,0c1.2,0,2.1,0.6,2.5,1.8c0.3,1.2,0,2.2-1.1,2.9c-0.5,0.3-1,0.5-1.4,0.9
			c-1,0.7-1.3,1.6-1,2.8c0.3,1.2,1.1,1.8,2.3,1.8c0.6,0,1.3,0,1.9,0.1c1.4,0.2,2.3,1.2,2.4,2.4c0.1,1.2-0.7,2.2-2,2.6
			c-0.4,0.1-0.8,0.2-1.2,0.3c-1.1,0.6-1.6,1.5-1.4,2.7c0.2,1.1,0.9,1.9,2.1,2.1c0.7,0.1,1.5,0,2.2,0.1c1.4,0.1,2.4,1,2.5,2.3
			c0.1,1.2-0.7,2.3-1.9,2.7c-0.4,0.1-0.8,0.2-1.2,0.4c-1.1,0.5-1.7,1.5-1.5,2.7c0.2,1.2,1,2,2.2,2.1c0.5,0.1,1.1,0,1.7,0
			c1.8,0,2.9,0.8,3,2.2c0.2,1.6-0.6,2.5-2.4,3c-0.2,0.1-0.5,0.1-0.7,0.2c-1.1,0.5-1.7,1.4-1.6,2.6c0.1,1.2,1,2.1,2.3,2.2
			c0.9,0.1,1.8,0,2.6,0.2c1.2,0.2,1.9,1.1,2,2.3c0.1,1.2-0.5,2-1.6,2.5c-0.3,0.1-0.7,0.2-1,0.3c-1.3,0.4-2.1,1.6-1.9,2.8
			c0.2,1.2,1.2,2.1,2.5,2.1c0.8,0,1.7,0,2.5,0.1c1.5,0.2,2.4,1.2,2.4,2.5c0,1.3-0.9,2.3-2.4,2.6c-1.9,0.3-2.7,1.2-2.7,2.7
			c0.1,1.5,1.1,2.4,3.1,2.4c0.7,0,1.5,0,2.2,0c1.6,0.1,2.7,1.1,2.8,2.5c0.1,1.4-1.1,2.6-2.8,2.6c-4.8,0-9.6,0-14.4,0
			C131.3,191.3,127.8,191.3,124.2,191.3z"/>
	</g>
</g>
<g>
	<ellipse opacity="0.11" fill="#231F20" cx="169.1" cy="235.6" rx="42.2" ry="3"/>
	<g opacity="0.21">
		<path fill="#FFFFFF" d="M209.5,226c0,3.3,0,6.3,0,9.5c-2.8,0-5.5,0-8.5,0c0.1-3.2,0.3-6.2,0.4-9.5c-0.8,0-1.4,0-2,0
			c-9.4,0-18.8,0-28.2,0c-0.6,0-1.2,0-1.7-0.1c-1.6-0.3-2.8-1.7-2.8-3.2c0.1-1.6,1.3-2.9,2.9-3.1c1.4-0.1,2.9,0,4.3-0.2
			c1.8-0.2,2.8-1.4,2.8-3.1c0-1.7-1.1-2.8-2.8-3.1c-2.4-0.4-3.6-1.6-3.5-3.4c0.1-1.9,1.6-3,4-3.1c0.7,0,1.5,0,2.2,0
			c1.5-0.1,2.7-1.2,3-2.6c0.2-1.5-0.7-3-2.2-3.5c-0.5-0.2-1.1-0.3-1.6-0.5c-1.3-0.6-1.9-1.7-1.8-3.1c0.1-1.4,0.9-2.5,2.3-2.8
			c1-0.2,2-0.2,3.1-0.2c1.8-0.1,3-1.1,3.2-2.8c0.2-1.6-0.8-3-2.5-3.4c-0.3-0.1-0.7-0.1-1-0.2c-1.6-0.5-2.4-1.7-2.3-3.4
			c0.1-1.5,1.3-2.7,2.9-2.9c0.9-0.1,1.8,0,2.7-0.1c1.6-0.1,2.6-1.1,3-2.6c0.3-1.5-0.6-2.9-2.1-3.5c-0.4-0.2-0.9-0.2-1.3-0.4
			c-1.5-0.5-2.4-1.9-2.2-3.3c0.1-1.5,1.4-2.8,2.9-2.9c0.9-0.1,1.7,0,2.6-0.1c1.7-0.1,2.8-1.2,3-2.8c0.2-1.7-0.7-3-2.4-3.5
			c-0.1,0-0.2-0.1-0.3-0.1c-2.2-0.6-3.2-1.8-3.1-3.5c0.2-1.8,1.5-2.9,3.8-3c0.5,0,0.9,0,1.4,0c1.5,0,2.6-0.8,3-2.3
			c0.4-1.6-0.1-2.8-1.5-3.6c0,0-0.1-0.1-0.1-0.1c-2.5-1.5-3.2-2.7-2.7-4.4c0.5-1.7,2-2.5,4.5-2.4c2,0.1,3.2-0.9,3.5-2.6
			c0.3-1.7-0.5-2.9-2.4-3.6c-0.4-0.1-0.8-0.3-1.1-0.5c-1.4-0.7-2-1.9-1.7-3.4c0.3-1.5,1.3-2.4,2.8-2.6c1-0.1,2,0,2.9-0.1
			c1.5-0.1,2.6-0.9,2.9-2.5c0.4-1.5-0.3-2.7-1.6-3.5c-0.4-0.3-0.9-0.4-1.4-0.6c-1.4-0.7-2.2-1.9-2-3.5c0.2-1.5,1.5-2.5,3.1-2.7
			c0.6-0.1,1.3-0.1,1.8-0.3c1.4-0.5,2.1-1.6,2-3.1c-0.1-1.4-0.8-2.4-2.1-2.8c-0.5-0.2-1.1-0.2-1.7-0.4c-1.4-0.6-2.2-1.7-2-3.2
			c0.2-1.6,1.1-2.6,2.7-2.8c0.6-0.1,1.1,0,1.7-0.1c1.6-0.1,2.8-1.3,3-2.8c0.2-1.7-0.7-2.9-2.4-3.4c-0.5-0.1-1-0.2-1.5-0.4
			c-1.4-0.6-2.2-1.7-2-3.3c0.2-1.5,1.1-2.7,2.6-2.8c4-0.1,8-0.1,12,0c1.5,0,2.6,1.4,2.6,2.9c0.1,1.5-0.8,2.8-2.3,3.2
			c-0.2,0-0.3,0.1-0.5,0.1c-2.6,0.5-3.7,1.6-3.5,3.6c0.2,1.9,1.5,2.8,4,2.8c0.8,0,1.6,0,2.4,0.1c1.6,0.2,2.7,1.4,2.8,3
			c0.1,1.4-0.9,2.8-2.3,3.2c-0.4,0.1-0.8,0.2-1.2,0.3c-1.6,0.4-2.6,1.7-2.5,3.2c0.1,1.5,1.2,2.7,2.9,3c0.7,0.1,1.4,0,2.1,0.1
			c1.6,0.1,2.7,1,3,2.5c0.3,1.6-0.4,2.8-1.8,3.5c-0.5,0.3-1.1,0.4-1.6,0.7c-1.4,0.8-1.9,2-1.5,3.5c0.3,1.5,1.3,2.2,2.8,2.4
			c0.8,0.1,1.6,0,2.4,0c2.1,0,3.4,0.9,3.7,2.6c0.3,1.6-0.6,3-2.5,3.7c-0.3,0.1-0.7,0.2-1,0.4c-1.4,0.7-2,1.8-1.8,3.4
			c0.3,1.5,1.3,2.4,2.8,2.6c0.7,0.1,1.4,0,2.1,0c1.5,0.1,2.6,0.8,3.1,2.3c0.4,1.5,0,2.7-1.3,3.6c-0.6,0.4-1.2,0.7-1.8,1.1
			c-1.2,0.9-1.6,2.1-1.3,3.5c0.4,1.4,1.4,2.2,2.9,2.3c0.8,0.1,1.6,0,2.4,0.1c1.7,0.2,2.9,1.4,3,3c0.1,1.5-0.9,2.8-2.5,3.2
			c-0.5,0.1-1,0.2-1.5,0.4c-1.4,0.7-2,1.9-1.8,3.4c0.3,1.4,1.2,2.4,2.6,2.6c0.9,0.1,1.8,0,2.7,0.1c1.7,0.1,2.9,1.3,3.1,2.9
			c0.2,1.5-0.8,2.8-2.4,3.3c-0.5,0.2-1,0.2-1.5,0.5c-1.4,0.7-2.1,1.8-1.8,3.4c0.2,1.5,1.2,2.4,2.8,2.6c0.7,0.1,1.4,0,2.1,0
			c2.2,0,3.5,1,3.8,2.7c0.3,1.9-0.7,3.2-2.9,3.7c-0.3,0.1-0.6,0.1-0.8,0.2c-1.4,0.6-2.1,1.7-2,3.3c0.1,1.5,1.3,2.6,2.8,2.8
			c1.1,0.1,2.2,0,3.2,0.2c1.6,0.3,2.4,1.3,2.5,2.9c0.1,1.4-0.6,2.5-1.9,3.1c-0.4,0.2-0.9,0.3-1.3,0.4c-1.6,0.5-2.6,2-2.3,3.5
			c0.2,1.5,1.5,2.6,3.1,2.6c1,0,2.1,0,3.1,0.1c1.8,0.2,3,1.5,3,3.2c0,1.6-1.2,2.9-3,3.2c-2.3,0.4-3.4,1.5-3.3,3.3
			c0.1,1.9,1.4,3,3.8,3c0.9,0,1.8,0,2.8,0c2,0.1,3.4,1.3,3.5,3.1c0.1,1.8-1.4,3.3-3.5,3.3c-6,0-11.9,0-17.9,0
			C218.3,226,213.9,226,209.5,226z"/>
	</g>
</g>
</svg>
