<?xml version="1.0" encoding="utf-8"?>
<!-- Generator: Adobe Illustrator 18.1.1, SVG Export Plug-In . SVG Version: 6.00 Build 0)  -->
<svg version="1.1" id="Layer_1" xmlns="http://www.w3.org/2000/svg" xmlns:xlink="http://www.w3.org/1999/xlink" x="0px" y="0px"
	 viewBox="0 0 32.3 287.3" enable-background="new 0 0 32.3 287.3" xml:space="preserve">
<path fill="#A8AAAD" d="M-23.1,273.9c0-2.5,2-4.5,4.5-4.5l0,0c2.5,0,4.5,2,4.5,4.5l0,0c0,2.5-2,4.5-4.5,4.5l0,0
	C-21.1,278.4-23.1,276.3-23.1,273.9z M-23.1,253.9c0-2.5,2-4.5,4.5-4.5l0,0c2.5,0,4.5,2,4.5,4.5l0,0c0,2.5-2,4.5-4.5,4.5l0,0
	C-21.1,258.4-23.1,256.3-23.1,253.9z M-23.1,233.9c0-2.5,2-4.5,4.5-4.5l0,0c2.5,0,4.5,2,4.5,4.5l0,0c0,2.5-2,4.5-4.5,4.5l0,0
	C-21.1,238.4-23.1,236.3-23.1,233.9z M-23.1,213.9c0-2.5,2-4.5,4.5-4.5l0,0c2.5,0,4.5,2,4.5,4.5l0,0c0,2.5-2,4.5-4.5,4.5l0,0
	C-21.1,218.4-23.1,216.3-23.1,213.9z M-23.1,193.9c0-2.5,2-4.5,4.5-4.5l0,0c2.5,0,4.5,2,4.5,4.5l0,0c0,2.5-2,4.5-4.5,4.5l0,0
	C-21.1,198.4-23.1,196.3-23.1,193.9z M-23.1,173.9c0-2.5,2-4.5,4.5-4.5l0,0c2.5,0,4.5,2,4.5,4.5l0,0c0,2.5-2,4.5-4.5,4.5l0,0
	C-21.1,178.4-23.1,176.3-23.1,173.9z M-23.1,153.9c0-2.5,2-4.5,4.5-4.5l0,0c2.5,0,4.5,2,4.5,4.5l0,0c0,2.5-2,4.5-4.5,4.5l0,0
	C-21.1,158.4-23.1,156.3-23.1,153.9z"/>
<path fill="#FFFFFF" d="M11.7,274.9c0-2.5,2-4.5,4.5-4.5l0,0c2.5,0,4.5,2,4.5,4.5l0,0c0,2.5-2,4.5-4.5,4.5l0,0
	C13.7,279.4,11.7,277.4,11.7,274.9z M11.7,254.9c0-2.5,2-4.5,4.5-4.5l0,0c2.5,0,4.5,2,4.5,4.5l0,0c0,2.5-2,4.5-4.5,4.5l0,0
	C13.7,259.4,11.7,257.4,11.7,254.9z M11.7,234.9c0-2.5,2-4.5,4.5-4.5l0,0c2.5,0,4.5,2,4.5,4.5l0,0c0,2.5-2,4.5-4.5,4.5l0,0
	C13.7,239.4,11.7,237.4,11.7,234.9z M11.7,214.9c0-2.5,2-4.5,4.5-4.5l0,0c2.5,0,4.5,2,4.5,4.5l0,0c0,2.5-2,4.5-4.5,4.5l0,0
	C13.7,219.4,11.7,217.4,11.7,214.9z M11.7,194.9c0-2.5,2-4.5,4.5-4.5l0,0c2.5,0,4.5,2,4.5,4.5l0,0c0,2.5-2,4.5-4.5,4.5l0,0
	C13.7,199.4,11.7,197.4,11.7,194.9z M11.7,174.9c0-2.5,2-4.5,4.5-4.5l0,0c2.5,0,4.5,2,4.5,4.5l0,0c0,2.5-2,4.5-4.5,4.5l0,0
	C13.7,179.4,11.7,177.4,11.7,174.9z M11.7,154.9c0-2.5,2-4.5,4.5-4.5l0,0c2.5,0,4.5,2,4.5,4.5l0,0c0,2.5-2,4.5-4.5,4.5l0,0
	C13.7,159.4,11.7,157.4,11.7,154.9z M11.7,134.9c0-2.5,2-4.5,4.5-4.5l0,0c2.5,0,4.5,2,4.5,4.5l0,0c0,2.5-2,4.5-4.5,4.5l0,0
	C13.7,139.4,11.7,137.4,11.7,134.9z M11.7,114.9c0-2.5,2-4.5,4.5-4.5l0,0c2.5,0,4.5,2,4.5,4.5l0,0c0,2.5-2,4.5-4.5,4.5l0,0
	C13.7,119.4,11.7,117.4,11.7,114.9z M11.7,94.9c0-2.5,2-4.5,4.5-4.5l0,0c2.5,0,4.5,2,4.5,4.5l0,0c0,2.5-2,4.5-4.5,4.5l0,0
	C13.7,99.4,11.7,97.4,11.7,94.9z M11.7,74.9c0-2.5,2-4.5,4.5-4.5l0,0c2.5,0,4.5,2,4.5,4.5l0,0c0,2.5-2,4.5-4.5,4.5l0,0
	C13.7,79.4,11.7,77.4,11.7,74.9z M11.7,54.9c0-2.5,2-4.5,4.5-4.5l0,0c2.5,0,4.5,2,4.5,4.5l0,0c0,2.5-2,4.5-4.5,4.5l0,0
	C13.7,59.4,11.7,57.4,11.7,54.9z M11.7,34.9c0-2.5,2-4.5,4.5-4.5l0,0c2.5,0,4.5,2,4.5,4.5l0,0c0,2.5-2,4.5-4.5,4.5l0,0
	C13.7,39.4,11.7,37.4,11.7,34.9z M11.7,14.9c0-2.5,2-4.5,4.5-4.5l0,0c2.5,0,4.5,2,4.5,4.5l0,0c0,2.5-2,4.5-4.5,4.5l0,0
	C13.7,19.4,11.7,17.4,11.7,14.9z M11.7-5.1c0-2.5,2-4.5,4.5-4.5l0,0c2.5,0,4.5,2,4.5,4.5l0,0c0,2.5-2,4.5-4.5,4.5l0,0
	C13.7-0.6,11.7-2.6,11.7-5.1z M11.7-25.1c0-2.5,2-4.5,4.5-4.5l0,0c2.5,0,4.5,2,4.5,4.5l0,0c0,2.5-2,4.5-4.5,4.5l0,0
	C13.7-20.6,11.7-22.6,11.7-25.1z M11.7-45.1c0-2.5,2-4.5,4.5-4.5l0,0c2.5,0,4.5,2,4.5,4.5l0,0c0,2.5-2,4.5-4.5,4.5l0,0
	C13.7-40.6,11.7-42.6,11.7-45.1z M11.7-65.1c0-2.5,2-4.5,4.5-4.5l0,0c2.5,0,4.5,2,4.5,4.5l0,0c0,2.5-2,4.5-4.5,4.5l0,0
	C13.7-60.6,11.7-62.6,11.7-65.1z M11.7-85.1c0-2.5,2-4.5,4.5-4.5l0,0c2.5,0,4.5,2,4.5,4.5l0,0c0,2.5-2,4.5-4.5,4.5l0,0
	C13.7-80.6,11.7-82.6,11.7-85.1z M11.7-105.1c0-2.5,2-4.5,4.5-4.5l0,0c2.5,0,4.5,2,4.5,4.5l0,0c0,2.5-2,4.5-4.5,4.5l0,0
	C13.7-100.6,11.7-102.6,11.7-105.1z"/>
<path fill="#A8AAAD" d="M-23.1,133.5c0-2.5,2-4.5,4.5-4.5l0,0c2.5,0,4.5,2,4.5,4.5l0,0c0,2.5-2,4.5-4.5,4.5l0,0
	C-21.1,138-23.1,135.9-23.1,133.5z M-23.1,113.5c0-2.5,2-4.5,4.5-4.5l0,0c2.5,0,4.5,2,4.5,4.5l0,0c0,2.5-2,4.5-4.5,4.5l0,0
	C-21.1,118-23.1,115.9-23.1,113.5z M-23.1,93.5c0-2.5,2-4.5,4.5-4.5l0,0c2.5,0,4.5,2,4.5,4.5l0,0c0,2.5-2,4.5-4.5,4.5l0,0
	C-21.1,98-23.1,95.9-23.1,93.5z M-23.1,73.5c0-2.5,2-4.5,4.5-4.5l0,0c2.5,0,4.5,2,4.5,4.5l0,0c0,2.5-2,4.5-4.5,4.5l0,0
	C-21.1,78-23.1,75.9-23.1,73.5z M-23.1,53.5c0-2.5,2-4.5,4.5-4.5l0,0c2.5,0,4.5,2,4.5,4.5l0,0c0,2.5-2,4.5-4.5,4.5l0,0
	C-21.1,58-23.1,55.9-23.1,53.5z M-23.1,33.5c0-2.5,2-4.5,4.5-4.5l0,0c2.5,0,4.5,2,4.5,4.5l0,0c0,2.5-2,4.5-4.5,4.5l0,0
	C-21.1,38-23.1,35.9-23.1,33.5z M-23.1,13.5c0-2.5,2-4.5,4.5-4.5l0,0c2.5,0,4.5,2,4.5,4.5l0,0c0,2.5-2,4.5-4.5,4.5l0,0
	C-21.1,18-23.1,15.9-23.1,13.5z"/>
</svg>
