<?xml version="1.0" encoding="utf-8"?>
<!-- Generator: Adobe Illustrator 18.1.1, SVG Export Plug-In . SVG Version: 6.00 Build 0)  -->
<svg version="1.1" id="Layer_1" xmlns="http://www.w3.org/2000/svg" xmlns:xlink="http://www.w3.org/1999/xlink" x="0px" y="0px"
	 viewBox="0 0 718.5 382.1" enable-background="new 0 0 718.5 382.1" xml:space="preserve">
<polygon fill="#BDBEC0" points="34.3,291.6 101.9,268.1 488.4,268.1 533.3,296.3 524.2,306.2 37.8,304.7 "/>
<path opacity="0.67" fill="#424143" d="M517.4,316.9c2,12.8-265.2,12.2-405.5,12.8C3.2,330.3,9.4,322.6,9.4,316.9
	c0-5.7,113.7-10.3,254-10.3S516.5,311.3,517.4,316.9z"/>
<g>
	<g>
		<path fill="#D2D3D4" d="M294.8,276c-59.1,0-118.3,0-177.4,0c-15.5,0-21.1-5.5-21.1-20.8c0-69.8,0-139.5,0-209.3
			c0-15.1,5.3-20.3,20.6-20.3c118.5,0,237.1,0,355.6,0c15.7,0,20.8,5.1,20.8,21c0,69.5,0,139,0,208.5c0,15.4-5.5,20.9-21,20.9
			C413.1,276,354,276,294.8,276z M472,47.1c-118.5,0-236.3,0-354.2,0c0,69.5,0,138.4,0,207.2c118.3,0,236.2,0,354.2,0
			C472,185.2,472,116.5,472,47.1z"/>
		<path fill="#E6E6E5" d="M34.3,291.6c74.7,0,149,0,223.9,0c-1.4,9.8,4.3,10.6,11.9,10.5c16.9-0.4,33.9-0.4,50.8,0
			c7.2,0.2,11.5-1.6,10.2-10.2c74.7,0,149.2,0,224.9,0c-0.5,5.4-0.5,10.9-1.7,16.1c-1.5,6-6.1,9.1-12.3,9.5
			c-2.8,0.1-5.6,0.1-8.3,0.1c-159,0-318,0-477,0C36.6,317.5,32.5,312.9,34.3,291.6z"/>
		<path fill="#28292D" d="M472,47.1c0,69.3,0,138,0,207.2c-118,0-235.8,0-354.2,0c0-68.9,0-137.7,0-207.2
			C235.6,47.1,353.5,47.1,472,47.1z"/>
	</g>
</g>
<path fill="#D2D3D4" d="M554.2,308.4c-1.5,6-6,9.1-12.3,9.5c-2.8,0.1-5.5,0.1-8.3,0.1c-158.5,0-317.1,0-475.6,0
	c-14.8,0.3-21.7-0.9-23.2-10.2L554.2,308.4z"/>
<rect x="128.8" y="61.2" fill="#CBCBCD" width="107.4" height="88.2"/>
<rect x="353.3" y="61.2" fill="#E7E7E7" width="105.9" height="88.2"/>
<rect x="128.8" y="156.5" fill="#CBCBCD" width="107.4" height="88.2"/>
<rect x="241" y="155.8" fill="#6E6F72" width="108.3" height="88.2"/>
<rect x="353.3" y="156.5" fill="#D2D3D4" width="105.9" height="88.2"/>
<g>
	<rect x="129.1" y="61.8" fill="#5F5F64" width="107.4" height="88.2"/>
	<rect x="154.5" y="61.8" fill="#DBD4C4" width="0.9" height="87.6"/>
	<rect x="155.3" y="100.6" fill="#DBD4C4" width="80.9" height="0.9"/>
	<rect x="209.7" y="101.6" fill="#DBD4C4" width="0.9" height="48.4"/>
	<g>
		<circle fill="#FFFFFF" cx="154.2" cy="92.1" r="1.4"/>
		<g>
			<path fill="#7EC354" d="M157.6,93.3c-0.4,1.6-2.6,5-2.6,5s-0.4,0.6-0.8,0.6c-0.4,0-0.8-0.6-0.8-0.6s-2.2-3.4-2.6-5
				c-0.1-0.4-0.2-0.8-0.2-1.2c0-2,1.6-3.6,3.6-3.6c2,0,3.6,1.6,3.6,3.6C157.8,92.5,157.7,92.9,157.6,93.3z M154.2,90.7
				c-0.8,0-1.4,0.6-1.4,1.4c0,0.8,0.6,1.4,1.4,1.4c0.8,0,1.4-0.6,1.4-1.4C155.6,91.3,155,90.7,154.2,90.7z"/>
			<ellipse opacity="0.36" fill="#020202" cx="154.4" cy="102" rx="3" ry="1"/>
		</g>
	</g>
	<g>
		<circle fill="#FFFFFF" cx="200.8" cy="116.1" r="1.4"/>
		<g>
			<path fill="#7EC354" d="M204.2,117.2c-0.4,1.6-2.6,5-2.6,5s-0.4,0.6-0.8,0.6c-0.4,0-0.8-0.6-0.8-0.6s-2.2-3.4-2.6-5
				c-0.1-0.4-0.2-0.8-0.2-1.2c0-2,1.6-3.6,3.6-3.6c2,0,3.6,1.6,3.6,3.6C204.5,116.5,204.4,116.9,204.2,117.2z M200.8,114.6
				c-0.8,0-1.4,0.6-1.4,1.4c0,0.8,0.6,1.4,1.4,1.4c0.8,0,1.4-0.6,1.4-1.4C202.2,115.3,201.6,114.6,200.8,114.6z"/>
			<ellipse opacity="0.36" fill="#020202" cx="201" cy="125.9" rx="3" ry="1"/>
		</g>
	</g>
</g>
<rect x="128.6" y="156.6" fill="#E7E7E7" width="107.4" height="88.2"/>
<rect x="151.2" y="192.8" fill="#818285" width="71.6" height="6"/>
<rect x="151.2" y="220.6" fill="#CBCBCD" width="52.4" height="8.3"/>
<rect x="151.2" y="206.1" fill="#818285" width="71.7" height="6"/>
<rect x="151.2" y="170.7" fill="#595A5C" width="71.7" height="11.2"/>
<g opacity="0.43">
	<defs>
		<rect id="SVGID_1_" x="242.3" y="156.1" opacity="0.43" width="107.1" height="88.2"/>
	</defs>
	<clipPath id="SVGID_2_">
		<use xlink:href="#SVGID_1_"  overflow="visible"/>
	</clipPath>
	<path clip-path="url(#SVGID_2_)" fill="none" stroke="#818285" stroke-miterlimit="10" d="M349.3,195.3"/>
	<path clip-path="url(#SVGID_2_)" fill="none" stroke="#818285" stroke-miterlimit="10" d="M268.5,195.3"/>
	
		<rect x="296.3" y="131.1" transform="matrix(0.6365 0.7713 -0.7713 0.6365 261.9221 -156.3092)" clip-path="url(#SVGID_2_)" fill="#FFFFFF" width="0.9" height="137.2"/>
	
		<rect x="322.5" y="186" transform="matrix(0.6771 0.7359 -0.7359 0.6771 246.5887 -188.9565)" clip-path="url(#SVGID_2_)" fill="#FFFFFF" width="32.1" height="0.9"/>
	
		<rect x="298.9" y="211.9" transform="matrix(0.7071 0.7071 -0.7071 0.7071 246.3595 -170.0969)" clip-path="url(#SVGID_2_)" fill="#FFFFFF" width="59.3" height="0.9"/>
	
		<rect x="280.3" y="225.4" transform="matrix(0.706 0.7082 -0.7082 0.706 250.1227 -150.6652)" clip-path="url(#SVGID_2_)" fill="#FFFFFF" width="52.5" height="0.9"/>
	<polygon clip-path="url(#SVGID_2_)" fill="#FFFFFF" points="289.9,245.3 268.4,223.9 269.1,223.2 289.9,244 349.5,192 350.1,192.7 
			"/>
	
		<rect x="250.2" y="239.9" transform="matrix(0.719 0.695 -0.695 0.719 239.2451 -110.9249)" clip-path="url(#SVGID_2_)" fill="#FFFFFF" width="13.2" height="0.9"/>
	
		<rect x="274.4" y="132.7" transform="matrix(0.6268 0.7792 -0.7792 0.6268 242.9804 -146.9653)" clip-path="url(#SVGID_2_)" fill="#FFFFFF" width="0.9" height="95.1"/>
	
		<rect x="255.8" y="162.9" transform="matrix(0.7071 0.7071 -0.7071 0.7071 195.1153 -144.2542)" clip-path="url(#SVGID_2_)" fill="#FFFFFF" width="31.9" height="0.9"/>
	
		<rect x="231.1" y="174.5" transform="matrix(0.7071 0.7071 -0.7071 0.7071 197.1234 -125.8935)" clip-path="url(#SVGID_2_)" fill="#FFFFFF" width="38.8" height="0.9"/>
	
		<rect x="256.9" y="140.8" transform="matrix(0.622 0.7831 -0.7831 0.622 228.9411 -137.9555)" clip-path="url(#SVGID_2_)" fill="#FFFFFF" width="0.9" height="54.7"/>
</g>
<g>
	<rect x="241.3" y="61.6" fill="#D5D8D6" width="107.4" height="88.2"/>
	<g>
		<path fill="#A8AAAD" d="M242.1,149.8c10.2-12.6,20-24.8,30.1-37.3c3.3,2.2,6.4,4.3,9.9,6.6c5.3-8.2,10.6-16.2,16.1-24.5
			c4.8,6.7,9.3,13,14,19.4c1.6-1.2,3.1-2.2,4.8-3.5c10.4,13.1,20.7,26,31.3,39.3C312.8,149.8,277.7,149.8,242.1,149.8z M247.3,148.1
			c1.3,0,2-0.1,2.7,0c2.9,0.4,4.3-0.5,5.5-2.7c4.1-7.7,8.5-15.3,12.8-22.9c0.3-0.5,0.5-1.1,0.8-1.6c-0.1,0-0.3-0.1-0.4-0.1
			C261.6,129.7,254.6,138.8,247.3,148.1z M262.8,148c0.4-1.8,0.7-3.6,1.1-5.4c-0.2-0.1-0.3-0.1-0.5-0.2c-1.7,1.8-3.5,3.5-5.5,5.6
			C259.8,148,261.2,148,262.8,148z"/>
		<path fill="#E7E7E7" d="M272.6,115.8c3.5,2.4,7,4.9,10.6,7.2c0.8,0.5,2.1,0.5,3.2,0.8c0.6,0.1,1.4,0.1,1.8,0.4
			c3.6,2.8,7.2,5.7,10.9,8.7l-4.8-0.4l0,10.9C293.2,142,275.6,121.9,272.6,115.8z"/>
		<path fill="#E7E7E7" d="M292.4,110.1c3.4-6.3,5-10.9,6-12.3c1.8,4.2,12.1,18.8,13.2,21.3C301,109.8,291.9,110.3,292.4,110.1z"/>
		<path fill="#E7E7E7" d="M247.3,148.1c7.3-9.3,14.4-18.3,21.4-27.3c0.1,0,0.3,0.1,0.4,0.1c-0.3,0.5-0.5,1.1-0.8,1.6
			c-4.3,7.6-8.8,15.2-12.8,22.9c-1.2,2.2-2.6,3.1-5.5,2.7C249.3,148,248.5,148.1,247.3,148.1z"/>
		<path fill="#E7E7E7" d="M322.9,133.1c-0.1,0-0.3,0.1-0.4,0.1c-1.5-2.7-3-5.4-4.5-8.1c-0.8-1.5-1.6-3-2.5-4.5
			c-1.9-3.4-1.9-3.4,2.1-6.3c3,3.7,5.9,7.3,8.8,11c-0.1,0.1-0.3,0.2-0.4,0.2C323.4,123.3,321.1,128.5,322.9,133.1z"/>
		<path fill="#E7E7E7" d="M262.8,148c-1.6,0-3,0-5,0c2-2.1,3.8-3.8,5.5-5.6c0.2,0.1,0.3,0.1,0.5,0.2
			C263.5,144.3,263.1,146.1,262.8,148z"/>
	</g>
</g>
<circle fill="#69C6F0" cx="140.8" cy="176.1" r="5.8"/>
<g opacity="0.35">
	<path fill="#19191D" d="M382.2,186.3v-7.5h-14.3v7.5h-3.6v57.9h33.1v-57.9H382.2z M371,233.3h-3.7v-8.6h3.7V233.3z M371,221.5h-3.7
		v-8.6h3.7V221.5z M371,209.7h-3.7v-8.6h3.7V209.7z M371,198h-3.7v-8.6h3.7V198z M376.9,233.3h-3.7v-8.6h3.7V233.3z M376.9,221.5
		h-3.7v-8.6h3.7V221.5z M376.9,209.7h-3.7v-8.6h3.7V209.7z M376.9,198h-3.7v-8.6h3.7V198z M382.7,233.3H379v-8.6h3.7V233.3z
		 M382.7,221.5H379v-8.6h3.7V221.5z M382.7,209.7H379v-8.6h3.7V209.7z M382.7,198H379v-8.6h3.7V198z M388.6,233.3h-3.7v-8.6h3.7
		V233.3z M388.6,221.5h-3.7v-8.6h3.7V221.5z M388.6,209.7h-3.7v-8.6h3.7V209.7z M388.6,198h-3.7v-8.6h3.7V198z M394.4,233.3h-3.7
		v-8.6h3.7V233.3z M394.4,221.5h-3.7v-8.6h3.7V221.5z M394.4,209.7h-3.7v-8.6h3.7V209.7z M394.4,198h-3.7v-8.6h3.7V198z
		 M441.8,204.2h-2.2v-6.7H437v-4.3h-2.2l-1.6-12.1h0v-1.3H432l-0.1-11.6h-0.3l-0.1,11.6h-1.2v1.3l-1.6,12.1h-2.2v4.3h-2.6v6.7h-2.2
		l0.4,40.5h20.8L441.8,204.2z"/>
</g>
<polygon fill="#FBB041" points="258.5,244.7 240.8,226.1 318.2,160.9 349.2,195 349,200.3 317.8,166.1 246.3,226.4 263.9,244.6 "/>
<g>
	<g>
		<path fill="#7EC354" d="M387.8,85c-3.7,0-7.3,0-11.2,0c0,3.9,0,7.5,0,11.2c-6.2,0.5-11.5-4.7-11.8-10.9
			c-0.2-6.4,5.1-11.9,11.6-11.9C382.8,73.4,388,78.5,387.8,85z"/>
		<path fill="#019547" d="M378.2,86.9c4.2,0,8.2,0,12.2,0c0.5,6.4-5,11.6-12.2,11.5C378.2,94.6,378.2,90.8,378.2,86.9z"/>
		<path fill="#818285" d="M411,87.2c0-1.1,0-2,0-3.1c11.9,0,23.8,0,36,0c0,0.9,0,1.9,0,3.1C435.1,87.2,423.2,87.2,411,87.2z"/>
		<path fill="#595A5C" d="M411.1,75.1c10,0,19.9,0,30,0c0,1.1,0,2.2,0,3.3c-10,0-19.9,0-30,0C411.1,77.3,411.1,76.3,411.1,75.1z"/>
		<path fill="#BDBEC0" d="M400.2,84.6c0-3.8-0.1-7.7,0.1-11.5c0-0.7,0.4-1,1.3-1.3c0.9,0.3,1.3,0.6,1.3,1.3c0.1,7.9,0.1,15.9,0,23.8
			c0,0.6-0.4,1.9-1.3,1.9c-0.9,0-1.3-1.3-1.3-2C400.1,92.7,400.2,88.6,400.2,84.6z"/>
		<path fill="#818285" d="M441.1,92.5c0,1.1,0,2,0,3.2c-10,0-19.8,0-30,0c0-1,0-2,0-3.2C421,92.5,430.8,92.5,441.1,92.5z"/>
	</g>
</g>
<path fill="#595A5C" d="M440.9,266.7"/>
<path opacity="0.67" fill="#424143" d="M695.1,365.3c-4.7,10-72.7,9-142,9.3c-76,0.4-96.7-6.5-96.7-9.3c0-2.8,43-5.2,96-5.2
	C605.4,360.1,696.3,362.7,695.1,365.3z"/>
<g>
	<g>
		<g>
			<g>
				<path fill="#231F20" d="M514.2,186.4c0-53.2,0-106.3,0-159.5c0-16,6.9-23.2,22.7-23.2c47.9-0.1,95.8-0.1,143.8,0
					c15.9,0,23.3,7.2,23.3,22.9c0.1,106.6,0.1,213.1,0,319.7c0,15.8-7.4,22.8-23.4,22.8c-47.7,0-95.3,0-143,0
					c-16.6,0-23.5-6.9-23.5-23.2C514.2,292.7,514.2,239.6,514.2,186.4z M698.8,53.7c-60.5,0-120.1,0-179.6,0c0,87.3,0,173.9,0,260.8
					c60,0,119.6,0,179.6,0C698.8,227.4,698.8,140.8,698.8,53.7z"/>
			</g>
			<rect x="519.1" y="52.5" fill="#E7E7E7" width="179.9" height="262.5"/>
			<rect x="518.9" y="51" fill="#424143" width="180.5" height="133.3"/>
			<polygon fill="#BDBEC0" points="594,184.3 533.8,51 536.1,50.9 595.7,184.3 			"/>
			<polygon fill="#BDBEC0" points="661.2,184.4 600.1,50.9 602.2,50.9 663,184.4 			"/>
			<polygon fill="#BDBEC0" points="622.6,97.2 622.2,95.5 699,78.7 699,80.3 			"/>
			<polygon fill="#BDBEC0" points="519.2,147.3 519.1,145.3 570.3,131.3 570.7,133 			"/>
			<polygon fill="#BDBEC0" points="519.1,81 518.9,79.1 621.4,50.9 627.2,51.1 			"/>
			<polygon fill="#BDBEC0" points="565.4,184.3 558.5,184.2 698.9,150.6 699,152.6 			"/>
			<g>
				<circle fill="#FFFFFF" cx="631.3" cy="86.8" r="2.7"/>
				<g>
					<path fill="#F05F51" d="M638,89.1c-0.8,3.2-5.1,9.8-5.1,9.8s-0.8,1.2-1.6,1.2c-0.8,0-1.6-1.2-1.6-1.2s-4.3-6.7-5.1-9.8
						c-0.3-0.7-0.4-1.5-0.4-2.3c0-3.9,3.2-7.1,7.1-7.1c3.9,0,7.1,3.2,7.1,7.1C638.3,87.6,638.2,88.3,638,89.1z M631.3,84
						c-1.5,0-2.7,1.2-2.7,2.7c0,1.5,1.2,2.7,2.7,2.7c1.5,0,2.7-1.2,2.7-2.7C634,85.2,632.8,84,631.3,84z"/>
					<ellipse opacity="0.36" fill="#020202" cx="631.7" cy="106" rx="5.9" ry="2"/>
				</g>
			</g>
			<g>
				<circle fill="#FFFFFF" cx="683.5" cy="152.9" r="2.7"/>
				<g>
					<path fill="#F05F51" d="M690.1,155.2c-0.8,3.2-5.1,9.8-5.1,9.8s-0.8,1.2-1.6,1.2c-0.8,0-1.6-1.2-1.6-1.2s-4.3-6.7-5.1-9.8
						c-0.3-0.7-0.4-1.5-0.4-2.3c0-3.9,3.2-7.1,7.1-7.1c3.9,0,7.1,3.2,7.1,7.1C690.5,153.7,690.4,154.4,690.1,155.2z M683.5,150.1
						c-1.5,0-2.7,1.2-2.7,2.7c0,1.5,1.2,2.7,2.7,2.7c1.5,0,2.7-1.2,2.7-2.7C686.2,151.3,685,150.1,683.5,150.1z"/>
					<ellipse opacity="0.36" fill="#020202" cx="683.9" cy="172.1" rx="5.9" ry="2"/>
				</g>
			</g>
			<g>
				<circle fill="#FFFFFF" cx="557.1" cy="147.6" r="2.7"/>
				<g>
					<path fill="#F05F51" d="M563.7,149.9c-0.8,3.2-5.1,9.8-5.1,9.8s-0.8,1.2-1.6,1.2c-0.8,0-1.6-1.2-1.6-1.2s-4.3-6.7-5.1-9.8
						c-0.3-0.7-0.4-1.5-0.4-2.3c0-3.9,3.2-7.1,7.1-7.1c3.9,0,7.1,3.2,7.1,7.1C564.1,148.4,564,149.2,563.7,149.9z M557.1,144.9
						c-1.5,0-2.7,1.2-2.7,2.7c0,1.5,1.2,2.7,2.7,2.7c1.5,0,2.7-1.2,2.7-2.7C559.8,146.1,558.6,144.9,557.1,144.9z"/>
					<ellipse opacity="0.36" fill="#020202" cx="557.5" cy="166.9" rx="5.9" ry="2"/>
				</g>
			</g>
			<rect x="531.3" y="217.2" fill="#424143" width="143.6" height="8.7"/>
			<rect x="531.6" y="242.5" fill="#A8AAAD" width="112.3" height="8.7"/>
			<rect x="531.3" y="266.8" fill="#BDBEC0" width="38.5" height="8.7"/>
			<rect x="577.4" y="266.8" fill="#BDBEC0" width="38.5" height="8.7"/>
		</g>
		<circle fill="#595A5C" cx="607.8" cy="340.6" r="15.2"/>
		<path fill="#595A5C" d="M622.5,34.5h-29.4c-2.6,0-4.7-2.1-4.7-4.7v0c0-2.6,2.1-4.7,4.7-4.7h29.4c2.6,0,4.7,2.1,4.7,4.7v0
			C627.2,32.4,625.1,34.5,622.5,34.5z"/>
	</g>
	<path opacity="0.17" fill="#FFFFFF" d="M704.6,351.7c0,0-171-349.6-170.2-348.2c11.5-0.4,147.3,0.1,147.3,0.1
		c14-0.5,22.6,8.3,22.6,21.7L704.6,351.7z"/>
</g>
<g>
	<path fill="#818285" d="M390.7,139.6c-1.9,0-3.4,0-5.3,0c0-5.8,0-11.5,0-17.4c1.5,0,3.2,0,5.3,0
		C390.7,127.9,390.7,133.7,390.7,139.6z"/>
	<path fill="#818285" d="M421.4,139.6c-1.9,0-3.4,0-5.3,0c0-5.8,0-11.5,0-17.4c1.5,0,3.2,0,5.3,0
		C421.4,127.9,421.4,133.7,421.4,139.6z"/>
	<path fill="#818285" d="M435.1,139.6c-1.9,0-3.4,0-5.3,0c0-5.8,0-11.5,0-17.4c1.5,0,3.2,0,5.3,0
		C435.1,127.9,435.1,133.7,435.1,139.6z"/>
	<path fill="#595A5C" d="M370.2,139.6c0-4.9,0-9.6,0-14.5c2,0,3.7,0,5.7,0c0,4.9,0,9.7,0,14.5C373.9,139.6,372.2,139.6,370.2,139.6z
		"/>
	<path fill="#595A5C" d="M442.5,139.6c0-4.9,0-9.6,0-14.5c2,0,3.7,0,5.7,0c0,4.9,0,9.7,0,14.5C446.2,139.6,444.5,139.6,442.5,139.6z
		"/>
	<path fill="#BDBEC0" d="M404.3,142.9c-11.9,0-23.8,0-35.7,0c-2.1,0-3.1-0.2-4.2-0.6c0.9-0.4,1.9-0.6,3.9-0.6c24.7,0,49.3,0,74,0
		c1.9,0,6,0.2,5.8,0.6c0,0.4-4.2,0.6-6.3,0.6C429.3,143,416.8,142.9,404.3,142.9z"/>
	<path fill="#818285" d="M399.8,125c1.9,0,3.5,0,5.4,0c0,4.8,0,9.6,0,14.5c-1.6,0-3.3,0-5.4,0C399.8,134.8,399.8,130,399.8,125z"/>
</g>
<path opacity="0.25" fill="#FFFFFF" d="M332.4,24.8l144.9,0.3c8.8,0,16,7.2,16,16.1l-2.6,219.6L332.4,24.8z"/>
</svg>
