<?xml version="1.0" encoding="utf-8"?>
<!-- Generator: Adobe Illustrator 18.1.1, SVG Export Plug-In . SVG Version: 6.00 Build 0)  -->
<svg version="1.1" id="Layer_1" xmlns="http://www.w3.org/2000/svg" xmlns:xlink="http://www.w3.org/1999/xlink" x="0px" y="0px"
	 viewBox="39 1739 1382 526" enable-background="new 39 1739 1382 526" xml:space="preserve">
<path fill="#FFFFFF" d="M81.9,1625"/>
<g>
	<g>
		<g>
			<path fill="#595A5C" d="M721,2177.2L721,2177.2z"/>
			<circle fill="#595A5C" cx="708.9" cy="2170.5" r="0.3"/>
			<circle fill="#595A5C" cx="696.6" cy="2163.6" r="0.6"/>
			<circle fill="#595A5C" cx="684.5" cy="2156.9" r="0.8"/>
			<circle fill="#595A5C" cx="672.4" cy="2150.1" r="1.1"/>
			<circle fill="#595A5C" cx="660.3" cy="2143.2" r="1.3"/>
			<circle fill="#595A5C" cx="648" cy="2136.5" r="1.5"/>
			<circle fill="#595A5C" cx="635.7" cy="2129.7" r="1.6"/>
			<circle fill="#595A5C" cx="623.6" cy="2122.9" r="1.9"/>
			<circle fill="#595A5C" cx="611.5" cy="2116.1" r="2.1"/>
			<circle fill="#595A5C" cx="599.2" cy="2109.4" r="2.1"/>
			<circle fill="#595A5C" cx="587.1" cy="2102.6" r="2.3"/>
			<circle fill="#595A5C" cx="575" cy="2095.7" r="2.4"/>
			<circle fill="#595A5C" cx="562.9" cy="2088.9" r="2.5"/>
			<circle fill="#595A5C" cx="550.6" cy="2082.2" r="2.5"/>
			<circle fill="#595A5C" cx="538.5" cy="2075.4" r="2.7"/>
			<circle fill="#595A5C" cx="526.4" cy="2068.6" r="2.8"/>
			<circle fill="#595A5C" cx="514.2" cy="2061.8" r="2.9"/>
			<circle fill="#595A5C" cx="502" cy="2055.1" r="2.9"/>
			<circle fill="#595A5C" cx="489.9" cy="2048.3" r="2.9"/>
			<circle fill="#595A5C" cx="477.7" cy="2041.6" r="2.9"/>
			<circle fill="#595A5C" cx="465.6" cy="2034.6" r="3"/>
			<circle fill="#595A5C" cx="453.3" cy="2027.9" r="3"/>
			<circle fill="#595A5C" cx="441.1" cy="2021.1" r="3"/>
			<circle fill="#595A5C" cx="429" cy="2014.3" r="3"/>
			<circle fill="#595A5C" cx="416.7" cy="2007.6" r="2.9"/>
			<circle fill="#595A5C" cx="404.6" cy="2000.8" r="2.9"/>
			<circle fill="#595A5C" cx="392.5" cy="1993.9" r="2.9"/>
			<circle fill="#595A5C" cx="380.3" cy="1987.1" r="2.8"/>
			<circle fill="#595A5C" cx="368.1" cy="1980.4" r="2.8"/>
			<circle fill="#595A5C" cx="356" cy="1973.6" r="2.7"/>
			<circle fill="#595A5C" cx="343.8" cy="1966.8" r="2.5"/>
			<circle fill="#595A5C" cx="331.7" cy="1960" r="2.5"/>
			<circle fill="#595A5C" cx="319.5" cy="1953.3" r="2.4"/>
			<circle fill="#595A5C" cx="307.3" cy="1946.4" r="2.3"/>
			<circle fill="#595A5C" cx="295.2" cy="1939.7" r="2.1"/>
			<circle fill="#595A5C" cx="283.1" cy="1932.8" r="2"/>
			<circle fill="#595A5C" cx="270.8" cy="1926.1" r="1.8"/>
			<circle fill="#595A5C" cx="258.7" cy="1919.3" r="1.6"/>
			<circle fill="#595A5C" cx="246.4" cy="1912.5" r="1.5"/>
			<circle fill="#595A5C" cx="234.3" cy="1905.8" r="1.1"/>
			<circle fill="#595A5C" cx="222.1" cy="1898.9" r="1"/>
			<circle fill="#595A5C" cx="209.9" cy="1892.1" r="0.8"/>
			<circle fill="#595A5C" cx="197.8" cy="1885.3" r="0.5"/>
			<circle fill="#595A5C" cx="185.7" cy="1878.6" r="0.3"/>
		</g>
	</g>
	<g>
		<g>
			<path fill="#595A5C" d="M272,1853.9L272,1853.9z"/>
			<circle fill="#595A5C" cx="285.9" cy="1853.9" r="0.3"/>
			<circle fill="#595A5C" cx="299.9" cy="1853.9" r="0.4"/>
			<circle fill="#595A5C" cx="313.8" cy="1854" r="0.6"/>
			<circle fill="#595A5C" cx="327.7" cy="1854" r="0.8"/>
			<circle fill="#595A5C" cx="341.7" cy="1854" r="0.9"/>
			<circle fill="#595A5C" cx="355.6" cy="1854.1" r="1"/>
			<circle fill="#595A5C" cx="369.5" cy="1854.1" r="1.1"/>
			<circle fill="#595A5C" cx="383.5" cy="1854.1" r="1.4"/>
			<circle fill="#595A5C" cx="397.4" cy="1854.2" r="1.5"/>
			<circle fill="#595A5C" cx="411.3" cy="1854.2" r="1.6"/>
			<circle fill="#595A5C" cx="425.2" cy="1854.2" r="1.6"/>
			<circle fill="#595A5C" cx="439.2" cy="1854.4" r="1.8"/>
			<circle fill="#595A5C" cx="453.1" cy="1854.4" r="2"/>
			<circle fill="#595A5C" cx="467" cy="1854.4" r="2.1"/>
			<circle fill="#595A5C" cx="481" cy="1854.4" r="2.1"/>
			<circle fill="#595A5C" cx="494.9" cy="1854.4" r="2.1"/>
			<circle fill="#595A5C" cx="508.8" cy="1854.4" r="2.3"/>
			<circle fill="#595A5C" cx="522.8" cy="1854.5" r="2.4"/>
			<circle fill="#595A5C" cx="536.7" cy="1854.5" r="2.5"/>
			<circle fill="#595A5C" cx="550.6" cy="1854.5" r="2.5"/>
			<circle fill="#595A5C" cx="564.5" cy="1854.6" r="2.5"/>
			<circle fill="#595A5C" cx="578.5" cy="1854.6" r="2.5"/>
			<circle fill="#595A5C" cx="592.4" cy="1854.6" r="2.7"/>
			<circle fill="#595A5C" cx="606.3" cy="1854.7" r="2.7"/>
			<circle fill="#595A5C" cx="620.3" cy="1854.7" r="2.8"/>
			<circle fill="#595A5C" cx="634.2" cy="1854.7" r="2.8"/>
			<circle fill="#595A5C" cx="648.1" cy="1854.9" r="2.9"/>
			<circle fill="#595A5C" cx="662" cy="1854.9" r="2.9"/>
			<circle fill="#595A5C" cx="676" cy="1854.9" r="2.9"/>
			<circle fill="#595A5C" cx="689.9" cy="1854.9" r="2.9"/>
			<circle fill="#595A5C" cx="703.8" cy="1854.9" r="2.9"/>
			<circle fill="#595A5C" cx="717.9" cy="1854.9" r="3"/>
			<circle fill="#595A5C" cx="731.7" cy="1855" r="3"/>
			<circle fill="#595A5C" cx="745.6" cy="1855" r="3"/>
			<circle fill="#595A5C" cx="759.7" cy="1855" r="3"/>
			<circle fill="#595A5C" cx="773.6" cy="1855.1" r="3"/>
			<circle fill="#595A5C" cx="787.5" cy="1855.1" r="3"/>
			<circle fill="#595A5C" cx="801.3" cy="1855.1" r="2.9"/>
			<circle fill="#595A5C" cx="815.4" cy="1855.2" r="2.9"/>
			<circle fill="#595A5C" cx="829.3" cy="1855.2" r="2.9"/>
			<circle fill="#595A5C" cx="843.2" cy="1855.2" r="2.9"/>
			<circle fill="#595A5C" cx="857.2" cy="1855.2" r="2.9"/>
			<circle fill="#595A5C" cx="871.1" cy="1855.2" r="2.9"/>
			<circle fill="#595A5C" cx="885" cy="1855.2" r="2.8"/>
			<circle fill="#595A5C" cx="899" cy="1855.4" r="2.8"/>
			<circle fill="#595A5C" cx="912.9" cy="1855.4" r="2.7"/>
			<circle fill="#595A5C" cx="926.8" cy="1855.4" r="2.7"/>
			<circle fill="#595A5C" cx="940.7" cy="1855.5" r="2.5"/>
			<circle fill="#595A5C" cx="954.7" cy="1855.5" r="2.5"/>
			<circle fill="#595A5C" cx="968.6" cy="1855.5" r="2.5"/>
			<circle fill="#595A5C" cx="982.5" cy="1855.6" r="2.4"/>
			<circle fill="#595A5C" cx="996.5" cy="1855.6" r="2.3"/>
			<circle fill="#595A5C" cx="1010.4" cy="1855.6" r="2.3"/>
			<circle fill="#595A5C" cx="1024.3" cy="1855.7" r="2.1"/>
			<circle fill="#595A5C" cx="1038.3" cy="1855.7" r="2.1"/>
			<circle fill="#595A5C" cx="1052.2" cy="1855.7" r="2"/>
			<circle fill="#595A5C" cx="1066.1" cy="1855.7" r="1.9"/>
			<circle fill="#595A5C" cx="1080" cy="1855.7" r="1.8"/>
			<circle fill="#595A5C" cx="1094" cy="1855.7" r="1.6"/>
			<circle fill="#595A5C" cx="1107.9" cy="1855.9" r="1.6"/>
			<circle fill="#595A5C" cx="1121.8" cy="1855.9" r="1.4"/>
			<circle fill="#595A5C" cx="1135.8" cy="1855.9" r="1.3"/>
			<circle fill="#595A5C" cx="1149.7" cy="1856" r="1.1"/>
			<circle fill="#595A5C" cx="1163.6" cy="1856" r="1"/>
			<circle fill="#595A5C" cx="1177.5" cy="1856" r="0.8"/>
			<circle fill="#595A5C" cx="1191.5" cy="1856.1" r="0.8"/>
			<circle fill="#595A5C" cx="1205.4" cy="1856.1" r="0.5"/>
			<circle fill="#595A5C" cx="1219.3" cy="1856.1" r="0.3"/>
			<circle fill="#595A5C" cx="1233.3" cy="1856.3" r="0.1"/>
		</g>
	</g>
	<g>
		<g>
			<path fill="#595A5C" d="M747.9,2180.9L747.9,2180.9z"/>
			<circle fill="#595A5C" cx="760" cy="2174.1" r="0.3"/>
			<circle fill="#595A5C" cx="772.2" cy="2167.2" r="0.6"/>
			<circle fill="#595A5C" cx="784.3" cy="2160.3" r="0.9"/>
			<circle fill="#595A5C" cx="796.3" cy="2153.6" r="1.1"/>
			<circle fill="#595A5C" cx="808.4" cy="2146.7" r="1.4"/>
			<circle fill="#595A5C" cx="820.7" cy="2139.8" r="1.6"/>
			<circle fill="#595A5C" cx="832.8" cy="2133" r="1.8"/>
			<circle fill="#595A5C" cx="844.9" cy="2126.1" r="2"/>
			<circle fill="#595A5C" cx="857.1" cy="2119.2" r="2.1"/>
			<circle fill="#595A5C" cx="869.2" cy="2112.3" r="2.3"/>
			<circle fill="#595A5C" cx="881.3" cy="2105.5" r="2.4"/>
			<circle fill="#595A5C" cx="893.3" cy="2098.7" r="2.5"/>
			<circle fill="#595A5C" cx="905.6" cy="2091.7" r="2.5"/>
			<circle fill="#595A5C" cx="917.7" cy="2085" r="2.7"/>
			<circle fill="#595A5C" cx="929.8" cy="2078.1" r="2.8"/>
			<circle fill="#595A5C" cx="941.9" cy="2071.2" r="2.8"/>
			<circle fill="#595A5C" cx="954.1" cy="2064.4" r="2.9"/>
			<circle fill="#595A5C" cx="966.2" cy="2057.5" r="2.9"/>
			<circle fill="#595A5C" cx="978.3" cy="2050.7" r="2.9"/>
			<circle fill="#595A5C" cx="990.4" cy="2043.8" r="3"/>
			<circle fill="#595A5C" cx="1002.6" cy="2036.9" r="3"/>
			<circle fill="#595A5C" cx="1014.7" cy="2030.1" r="3"/>
			<circle fill="#595A5C" cx="1026.8" cy="2023.2" r="3"/>
			<circle fill="#595A5C" cx="1038.9" cy="2016.4" r="2.9"/>
			<circle fill="#595A5C" cx="1051.1" cy="2009.6" r="2.9"/>
			<circle fill="#595A5C" cx="1063.2" cy="2002.7" r="2.9"/>
			<circle fill="#595A5C" cx="1075.3" cy="1995.8" r="2.8"/>
			<circle fill="#595A5C" cx="1087.5" cy="1989" r="2.7"/>
			<circle fill="#595A5C" cx="1099.6" cy="1982.1" r="2.5"/>
			<circle fill="#595A5C" cx="1111.7" cy="1975.2" r="2.5"/>
			<circle fill="#595A5C" cx="1123.8" cy="1968.3" r="2.4"/>
			<circle fill="#595A5C" cx="1136" cy="1961.5" r="2.3"/>
			<circle fill="#595A5C" cx="1148.1" cy="1954.7" r="2.1"/>
			<circle fill="#595A5C" cx="1160.2" cy="1947.8" r="2"/>
			<circle fill="#595A5C" cx="1172.5" cy="1941" r="1.9"/>
			<circle fill="#595A5C" cx="1184.5" cy="1934.1" r="1.6"/>
			<circle fill="#595A5C" cx="1196.6" cy="1927.2" r="1.5"/>
			<circle fill="#595A5C" cx="1208.7" cy="1920.4" r="1.1"/>
			<circle fill="#595A5C" cx="1220.8" cy="1913.5" r="1"/>
			<circle fill="#595A5C" cx="1233" cy="1906.7" r="0.8"/>
			<circle fill="#595A5C" cx="1245.1" cy="1899.8" r="0.5"/>
			<circle fill="#595A5C" cx="1257.3" cy="1892.9" r="0.1"/>
		</g>
	</g>
</g>
<path fill="#289ED9" d="M292.4,1743.1H156c-3,0-5.4,2.5-5.4,5.4v46.1c0,3,2.5,5.4,5.4,5.4h60.5c0.3,0,0.4,0.1,0.5,0.3l7.3,6.6
	c0.3,0.3,0.8,0.3,1.1,0l6.4-6.4c0.3-0.3,0.4-0.3,0.6-0.3h59.7c3,0,5.4-2.5,5.4-5.4v-46.2C297.9,1745.6,295.5,1743.1,292.4,1743.1z"
	/>
<path fill="#289ED9" d="M804.3,1955.9H667.7c-3,0-5.4,2.5-5.4,5.4v46.1c0,3,2.5,5.4,5.4,5.4h60.5c0.3,0,0.4,0.1,0.5,0.3l7.3,6.6
	c0.3,0.3,0.8,0.3,1.1,0l6.4-6.4c0.3-0.3,0.4-0.3,0.6-0.3H804c3,0,5.4-2.5,5.4-5.4v-46.1C809.7,1958.4,807.2,1955.9,804.3,1955.9z"/>
<g>
	<g enable-background="new    ">
		<path fill="#FFFFFF" d="M219.3,1763.3l7.8,20.1h-2l-2.4-6.2h-9.2l-2.4,6.2h-2l8.1-20.1H219.3z M221.9,1775.5l-3.9-10.2l-4,10.2
			H221.9z"/>
		<path fill="#FFFFFF" d="M230.4,1763.3v2.8h-1.8v-2.8H230.4z M230.4,1768.8v14.5h-1.8v-14.5H230.4z"/>
		<path fill="#FFFFFF" d="M235.5,1768.8v3.4l0,0c0.5-1.1,1.1-2.1,2.1-2.8c0.9-0.6,2-0.9,3.4-0.9v1.8c-0.8,0-1.5,0.1-2.1,0.4
			c-0.6,0.3-1.3,0.6-1.6,1.1c-0.5,0.5-0.9,1-1.1,1.6c-0.3,0.6-0.4,1.4-0.4,2.1v7.7h-1.8v-14.5H235.5z"/>
	</g>
</g>
<g>
	<path fill="#289ED9" d="M1408.9,1743.8h-135.7c-3.2,0-5.8,2.5-5.8,5.8v51.5c0,3.2,2.5,5.8,5.8,5.8h22.4c0.3,0,0.6,0.1,0.8,0.3
		l7.6,6.4c0.5,0.4,1.1,0.4,1.6-0.1l6.1-6.3c0.3-0.3,0.5-0.4,0.8-0.4h96.5c3.2,0,5.8-2.5,5.8-5.8v-51.3
		C1414.9,1746.5,1412.2,1743.8,1408.9,1743.8z"/>
	<g>
		<g enable-background="new    ">
			<path fill="#FFFFFF" d="M1318,1770.3c-0.4-0.6-0.9-1.1-1.4-1.5c-0.5-0.4-1.1-0.8-1.8-0.9c-0.6-0.1-1.4-0.4-2.1-0.4
				c-1.4,0-2.5,0.3-3.4,0.8c-1,0.5-1.8,1.1-2.4,2c-0.6,0.9-1,1.8-1.4,2.8c-0.3,1-0.4,2.1-0.4,3.3c0,1.1,0.1,2.1,0.4,3.2
				c0.3,1,0.8,2,1.4,2.8c0.6,0.9,1.4,1.5,2.4,2c1,0.5,2.1,0.8,3.4,0.8c0.9,0,1.8-0.1,2.5-0.5c0.8-0.4,1.4-0.8,1.9-1.4
				c0.5-0.6,1-1.3,1.3-2c0.4-0.8,0.5-1.6,0.6-2.5h1.9c-0.1,1.3-0.4,2.4-0.9,3.3c-0.5,1-1,1.9-1.8,2.5c-0.8,0.6-1.5,1.3-2.5,1.6
				c-1,0.4-2,0.5-3.2,0.5c-1.5,0-2.9-0.3-4.2-0.9c-1.3-0.6-2.1-1.4-2.9-2.3c-0.8-0.9-1.4-2-1.8-3.3s-0.6-2.5-0.6-3.9
				c0-1.4,0.3-2.7,0.6-3.9c0.4-1.3,1-2.4,1.8-3.3c0.8-1,1.8-1.8,2.9-2.3c1.1-0.5,2.5-0.9,4.2-0.9c1,0,1.9,0.1,2.8,0.4
				c0.9,0.3,1.8,0.8,2.5,1.3c0.8,0.5,1.4,1.3,1.9,2c0.5,0.8,0.8,1.8,0.9,2.8h-1.9C1318.6,1771.6,1318.4,1770.9,1318,1770.3z"/>
			<path fill="#FFFFFF" d="M1325.3,1766.3v20.1h-1.8v-20.1H1325.3z"/>
			<path fill="#FFFFFF" d="M1337.8,1772.1c0.9,0.4,1.5,1,2.1,1.6s1,1.5,1.3,2.4s0.5,1.9,0.5,2.9s-0.1,2-0.5,2.9
				c-0.3,0.9-0.8,1.8-1.3,2.4c-0.6,0.6-1.3,1.3-2.1,1.6s-1.9,0.6-2.9,0.6c-1.1,0-2.1-0.3-2.9-0.6c-0.9-0.4-1.5-1-2.1-1.6
				c-0.6-0.6-1-1.5-1.3-2.4s-0.5-1.9-0.5-2.9s0.1-2,0.5-2.9c0.3-0.9,0.8-1.8,1.3-2.4c0.6-0.6,1.3-1.3,2.1-1.6s1.9-0.6,2.9-0.6
				C1335.9,1771.4,1336.9,1771.6,1337.8,1772.1z M1332.6,1773.5c-0.6,0.4-1.1,0.9-1.6,1.4c-0.5,0.5-0.8,1.3-1,2
				c-0.3,0.8-0.4,1.5-0.4,2.3c0,0.8,0.1,1.5,0.4,2.3c0.3,0.8,0.5,1.4,1,2c0.5,0.6,1,1,1.6,1.4c0.6,0.4,1.4,0.5,2.3,0.5
				s1.6-0.1,2.3-0.5c0.6-0.4,1.1-0.9,1.6-1.4c0.5-0.5,0.8-1.3,1-2c0.3-0.8,0.4-1.5,0.4-2.3c0-0.8-0.1-1.5-0.4-2.3
				c-0.3-0.8-0.5-1.4-1-2c-0.5-0.6-1-1-1.6-1.4c-0.6-0.4-1.4-0.5-2.3-0.5S1333.3,1773.1,1332.6,1773.5z"/>
			<path fill="#FFFFFF" d="M1354.5,1786.3v-2.7l0,0c-0.5,1-1.1,1.8-2,2.3c-0.9,0.5-1.9,0.8-2.9,0.8c-0.9,0-1.6-0.1-2.4-0.4
				c-0.6-0.3-1.1-0.6-1.5-1.1c-0.4-0.5-0.8-1-0.9-1.8c-0.1-0.6-0.3-1.4-0.3-2.3v-9.5h1.8v9.5c0,1.3,0.4,2.3,0.9,3
				c0.6,0.6,1.5,1,2.9,1c0.8,0,1.4-0.1,2-0.5s1-0.8,1.4-1.3c0.4-0.5,0.6-1.1,0.8-1.9c0.1-0.8,0.3-1.4,0.3-2.1v-7.6h1.8v14.5H1354.5z
				"/>
			<path fill="#FFFFFF" d="M1370.7,1786.3v-2.8l0,0c-0.1,0.5-0.5,0.9-0.9,1.3c-0.4,0.4-0.8,0.8-1.3,1s-1,0.5-1.5,0.6
				c-0.5,0.1-1,0.3-1.6,0.3c-1.1,0-2-0.3-2.9-0.6c-0.9-0.4-1.5-1-2-1.6c-0.5-0.8-1-1.5-1.3-2.4c-0.3-0.9-0.4-1.9-0.4-2.9
				c0-1,0.1-2,0.4-2.9c0.3-0.9,0.6-1.8,1.3-2.4c0.5-0.8,1.3-1.3,2-1.6c0.8-0.4,1.8-0.6,2.9-0.6c0.5,0,1,0.1,1.6,0.3
				c0.5,0.1,1,0.4,1.4,0.6c0.5,0.3,0.9,0.6,1.1,1c0.4,0.4,0.6,0.9,0.8,1.4l0,0v-8.3h1.8v20.1h-1.4V1786.3z M1360.9,1781.3
				c0.1,0.8,0.5,1.4,0.9,2c0.4,0.6,0.9,1,1.5,1.4s1.3,0.5,2.1,0.5s1.8-0.1,2.4-0.5s1.1-0.9,1.5-1.4c0.4-0.6,0.6-1.3,0.9-2
				c0.1-0.8,0.3-1.5,0.3-2.3s-0.1-1.5-0.3-2.3c-0.1-0.8-0.5-1.4-0.9-2c-0.4-0.6-0.9-1-1.5-1.4c-0.6-0.4-1.4-0.5-2.4-0.5
				c-0.9,0-1.5,0.1-2.1,0.5c-0.6,0.4-1.1,0.9-1.5,1.4c-0.4,0.6-0.6,1.3-0.9,2c-0.1,0.8-0.3,1.5-0.3,2.3
				C1360.7,1779.8,1360.7,1780.5,1360.9,1781.3z"/>
		</g>
	</g>
</g>
<g>
	<rect x="695.1" y="2080.5" fill="#424143" width="99.2" height="145.3"/>
	<g>
		<g>
			<g>
				<path fill="#FFFFFF" d="M692.5,2155.5c0-29.3,0-58.6,0-87.9c0-8.8,3.8-12.9,12.5-12.9c26.5,0,52.8,0,79.3,0
					c8.7,0,12.9,4,12.9,12.6c0,58.9,0,117.6,0,176.5c0,8.7-4,12.5-12.9,12.5c-26.3,0-52.5,0-78.9,0c-9.1,0-12.9-3.8-12.9-12.9
					C692.5,2214.1,692.5,2184.8,692.5,2155.5z M745,2248.5c5.4,0,9.6-4.3,9.6-9.6c0-5.3-4.4-9.6-9.6-9.6c-5.2,0-9.6,4.4-9.6,9.6
					C735.4,2244.4,739.6,2248.5,745,2248.5z M745.4,2069.6c-3.8,0-7.6-0.3-11.2,0.1c-1.1,0.1-2.1,1.5-3.4,2.3
					c1.1,0.9,2.1,2.4,3.3,2.5c7.3,0.3,14.8,0.3,22.1,0c1,0,2-1.6,3-2.5c-1-0.8-2-2.1-3-2.1C752.6,2069.5,748.9,2069.6,745.4,2069.6z
					 M794.4,2082.2c-33.5,0-66.3,0-99.2,0c0,48.1,0,95.9,0,143.9c33.1,0,65.9,0,99.2,0C794.4,2178,794.4,2130.2,794.4,2082.2z"/>
			</g>
			<rect x="695.1" y="2080.7" fill="#818285" width="99.2" height="73.5"/>
			<polygon fill="#BDBEC0" points="736.5,2154.2 703.3,2080.7 704.5,2080.7 737.4,2154.2 			"/>
			<polygon fill="#BDBEC0" points="773.6,2154.4 739.8,2080.7 741,2080.7 774.7,2154.4 			"/>
			<polygon fill="#BDBEC0" points="752.2,2106.2 752.1,2105.3 794.4,2096 794.4,2096.9 			"/>
			<polygon fill="#BDBEC0" points="695.2,2133.9 695.2,2132.8 723.4,2125.1 723.7,2125.9 			"/>
			<polygon fill="#BDBEC0" points="695.1,2097.4 695.1,2096.3 751.6,2080.7 754.9,2080.8 			"/>
			<polygon fill="#BDBEC0" points="720.8,2154.2 717,2154.2 794.4,2135.8 794.4,2136.7 			"/>
			<g>
				<circle fill="#818285" cx="757.1" cy="2100.4" r="1.5"/>
				<g>
					<path fill="#FFFFFF" d="M760.7,2101.7c-0.4,1.8-2.8,5.4-2.8,5.4s-0.4,0.8-0.9,0.8c-0.4,0-0.9-0.8-0.9-0.8s-2.4-3.7-2.8-5.4
						c-0.1-0.4-0.3-0.8-0.3-1.3c0-2.1,1.8-3.9,3.9-3.9c2.1,0,3.9,1.8,3.9,3.9C761.1,2100.9,760.9,2101.3,760.7,2101.7z
						 M757.1,2098.9c-0.8,0-1.5,0.8-1.5,1.5c0,0.8,0.8,1.5,1.5,1.5s1.5-0.8,1.5-1.5C758.7,2099.7,757.9,2098.9,757.1,2098.9z"/>
					<ellipse opacity="0.36" fill="#020202" enable-background="new    " cx="757.3" cy="2111" rx="3.3" ry="1.1"/>
				</g>
			</g>
			<g>
				<circle fill="#818285" cx="785.9" cy="2136.9" r="1.5"/>
				<g>
					<path fill="#FFFFFF" d="M789.6,2138.2c-0.4,1.8-2.8,5.4-2.8,5.4s-0.4,0.8-0.9,0.8c-0.4,0-0.9-0.8-0.9-0.8s-2.4-3.7-2.8-5.4
						c-0.1-0.4-0.3-0.8-0.3-1.3c0-2.1,1.8-3.9,3.9-3.9c2.1,0,3.9,1.8,3.9,3.9C789.7,2137.3,789.6,2137.8,789.6,2138.2z
						 M785.9,2135.4c-0.8,0-1.5,0.8-1.5,1.5s0.8,1.5,1.5,1.5c0.8,0,1.5-0.8,1.5-1.5C787.3,2136.2,786.7,2135.4,785.9,2135.4z"/>
					<ellipse opacity="0.36" fill="#020202" enable-background="new    " cx="786.1" cy="2147.5" rx="3.3" ry="1.1"/>
				</g>
			</g>
			<g>
				<circle fill="#818285" cx="716.1" cy="2134" r="1.5"/>
				<g>
					<path fill="#FFFFFF" d="M719.7,2135.3c-0.4,1.8-2.8,5.4-2.8,5.4s-0.4,0.8-0.9,0.8c-0.4,0-0.9-0.8-0.9-0.8s-2.4-3.7-2.8-5.4
						c-0.1-0.4-0.3-0.8-0.3-1.3c0-2.1,1.8-3.9,3.9-3.9c2.1,0,3.9,1.8,3.9,3.9C720,2134.5,719.9,2134.9,719.7,2135.3z M716.1,2132.5
						c-0.8,0-1.5,0.8-1.5,1.5s0.8,1.5,1.5,1.5s1.5-0.8,1.5-1.5C717.6,2133.3,717,2132.5,716.1,2132.5z"/>
					<ellipse opacity="0.36" fill="#020202" enable-background="new    " cx="716.3" cy="2144.8" rx="3.3" ry="1.1"/>
				</g>
			</g>
			<polyline fill="#BDBEC0" points="701.9,2177.2 701.9,2172.4 781.1,2172.4 781.1,2177.2 			"/>
			<polyline fill="#A8AAAD" points="702.1,2191.1 702.1,2186.4 764,2186.4 764,2191.1 			"/>
			<polyline fill="#BDBEC0" points="723.2,2199.8 723.2,2204.6 701.9,2204.6 701.9,2199.8 			"/>
			<polyline fill="#BDBEC0" points="727.3,2204.6 727.3,2199.8 748.5,2199.8 748.5,2204.6 			"/>
		</g>
	</g>
</g>
<g>
	<path fill="#FFFFFF" d="M1326.6,1884.8c-3.8-14.8-20-30.3-43.7-24.5c-0.9-13.5-6.6-23.9-18.2-30.4c-11.5-6.4-23.4-5.7-35,0.3
		c-0.8-1.6-1.4-3-2.1-4.3c-11.5-22.7-35.2-34.7-61.3-31.1c-22.6,3.2-42.8,22.6-47.1,46c-0.8,4-2.1,5.9-5.7,7.8
		c-16.9,9.1-25.4,28.9-20.6,47.6c4.9,18.9,21.2,32.1,40.5,32.1c53.3,0.1,106.7,0.1,160.2,0C1316,1928.4,1332.1,1906.8,1326.6,1884.8
		z"/>
	<path fill="#E7E7E7" d="M1140.6,1806.1c0.3-0.5-18.7,13.9-23.1,34.5c-0.8,3.9-2.1,5.9-5.7,7.8c-16.9,9.1-25.4,28.8-20.6,47.4
		c4.9,18.9,21.2,32,40.5,32c31.2,0,125.3,1.9,123.3,0.3c0,0-49.6-5.9-60.6-39.2C1194.6,1888.7,1111.1,1879.7,1140.6,1806.1z"/>
</g>
<g>
	<g enable-background="new    ">
		<path fill="#FFFFFF" d="M708.9,1995.1l-0.3-3.7l0,0c-0.4,0.8-0.8,1.4-1.3,1.9c-0.5,0.5-1,0.9-1.6,1.3c-0.6,0.4-1.3,0.5-1.9,0.8
			c-0.6,0.1-1.4,0.3-2.1,0.3c-1.5,0-2.9-0.3-4.2-0.9c-1.1-0.6-2.1-1.4-2.9-2.3c-0.8-1-1.4-2-1.8-3.3c-0.4-1.3-0.6-2.5-0.6-3.9
			c0-1.4,0.3-2.7,0.6-3.9c0.4-1.3,1-2.4,1.8-3.3c0.8-1,1.8-1.8,2.9-2.3c1.1-0.6,2.5-0.9,4.2-0.9c1,0,2,0.1,3,0.4
			c0.9,0.3,1.8,0.8,2.5,1.3s1.4,1.3,1.9,2c0.5,0.9,0.9,1.8,1,2.9h-1.9c0-0.6-0.3-1.1-0.6-1.8c-0.4-0.6-0.8-1.1-1.3-1.6
			c-0.5-0.5-1.3-0.9-2-1.1c-0.8-0.3-1.6-0.5-2.5-0.5c-1.4,0-2.5,0.3-3.4,0.8c-1,0.5-1.8,1.1-2.4,2c-0.6,0.9-1,1.8-1.4,2.8
			c-0.4,1-0.4,2.1-0.4,3.3s0.1,2.1,0.4,3.2c0.3,1,0.8,2,1.4,2.8c0.6,0.9,1.4,1.5,2.4,2c1,0.5,2.1,0.8,3.4,0.8c1.1,0,2.1-0.1,2.9-0.5
			c0.9-0.4,1.6-0.9,2.1-1.5c0.6-0.6,1-1.4,1.4-2.3c0.3-0.9,0.4-1.9,0.4-2.9h-6.8v-1.9h8.5v10.2H708.9z"/>
		<path fill="#FFFFFF" d="M715.3,1980.5v3.4l0,0c0.5-1.1,1.1-2.1,2.1-2.8c0.9-0.6,2-0.9,3.4-0.9v1.8c-0.8,0-1.5,0.1-2.1,0.4
			c-0.6,0.3-1.3,0.6-1.6,1.1c-0.5,0.5-0.9,1-1.1,1.6c-0.3,0.6-0.4,1.4-0.4,2.1v7.7h-1.9v-14.5H715.3z"/>
		<path fill="#FFFFFF" d="M731.1,1980.8c0.9,0.4,1.5,1,2.1,1.6s1,1.5,1.3,2.4c0.3,0.9,0.5,1.9,0.5,2.9s-0.1,2-0.5,2.9
			c-0.3,0.9-0.8,1.8-1.3,2.4c-0.6,0.6-1.3,1.3-2.1,1.6c-0.9,0.4-1.9,0.6-2.9,0.6c-1.1,0-2.1-0.3-2.9-0.6c-0.9-0.4-1.5-1-2.1-1.6
			c-0.6-0.6-1-1.5-1.3-2.4s-0.5-1.9-0.5-2.9s0.1-2,0.5-2.9c0.3-0.9,0.8-1.8,1.3-2.4c0.6-0.6,1.3-1.3,2.1-1.6
			c0.9-0.4,1.9-0.6,2.9-0.6S730.2,1980.3,731.1,1980.8z M725.9,1982.2c-0.6,0.4-1.1,0.9-1.6,1.4c-0.5,0.5-0.8,1.3-1,2
			c-0.3,0.8-0.4,1.5-0.4,2.3s0.1,1.5,0.4,2.3c0.3,0.8,0.5,1.4,1,2c0.5,0.6,1,1,1.6,1.4s1.4,0.5,2.3,0.5s1.6-0.1,2.3-0.5
			c0.6-0.4,1.1-0.9,1.6-1.4c0.5-0.5,0.8-1.3,1-2c0.3-0.8,0.4-1.5,0.4-2.3s-0.1-1.5-0.4-2.3c-0.3-0.8-0.5-1.4-1-2
			c-0.5-0.6-1-1-1.6-1.4c-0.6-0.4-1.4-0.5-2.3-0.5S726.6,1981.8,725.9,1982.2z"/>
		<path fill="#FFFFFF" d="M747.8,1995.1v-2.7l0,0c-0.5,1-1.1,1.8-2,2.3c-0.9,0.5-1.9,0.8-2.9,0.8c-0.9,0-1.6-0.1-2.4-0.4
			c-0.6-0.3-1.1-0.6-1.5-1.1c-0.4-0.5-0.8-1-0.9-1.8c-0.1-0.6-0.3-1.4-0.3-2.3v-9.5h1.8v9.5c0,1.3,0.4,2.3,0.9,3
			c0.6,0.6,1.5,1,2.9,1c0.8,0,1.4-0.1,2-0.5s1-0.8,1.4-1.3c0.4-0.5,0.6-1.1,0.8-1.9s0.3-1.4,0.3-2.1v-7.6h1.8v14.5H747.8
			L747.8,1995.1z"/>
		<path fill="#FFFFFF" d="M754.5,1980.5v2.5l0,0c0.4-0.9,0.9-1.6,1.8-2.1s1.8-0.8,2.8-0.8c1,0,1.9,0.1,2.5,0.4
			c0.6,0.3,1.3,0.6,1.6,1.1c0.4,0.5,0.8,1,0.9,1.8c0.1,0.6,0.3,1.5,0.3,2.3v9.3h-1.8v-9.1c0-0.6,0-1.1-0.1-1.8
			c-0.1-0.5-0.3-1-0.6-1.4c-0.4-0.4-0.6-0.8-1.1-0.9c-0.5-0.3-1-0.4-1.8-0.4c-0.8,0-1.4,0.1-1.9,0.4c-0.5,0.3-1,0.6-1.4,1
			c-0.4,0.4-0.6,1-0.9,1.5c-0.3,0.6-0.4,1.3-0.4,2v8.5h-1.8v-14.5h1.9V1980.5z"/>
		<path fill="#FFFFFF" d="M779,1995.1v-2.8l0,0c-0.1,0.5-0.5,0.9-0.9,1.3c-0.4,0.4-0.8,0.8-1.3,1c-0.5,0.3-1,0.5-1.5,0.6
			c-0.5,0.1-1,0.3-1.6,0.3c-1.1,0-2-0.3-2.9-0.6c-0.9-0.4-1.5-1-2-1.6c-0.5-0.8-1-1.5-1.3-2.4c-0.3-0.9-0.4-1.9-0.4-2.9
			s0.1-2,0.4-2.9s0.6-1.8,1.3-2.4c0.5-0.8,1.3-1.3,2-1.6s1.8-0.6,2.9-0.6c0.5,0,1,0.1,1.6,0.3c0.5,0.1,1,0.4,1.4,0.6
			c0.5,0.3,0.9,0.6,1.1,1c0.4,0.4,0.6,0.9,0.8,1.4l0,0v-8.3h1.8v20.1H779V1995.1z M769.3,1990c0.1,0.8,0.5,1.4,0.9,2
			c0.4,0.6,0.9,1,1.5,1.4c0.6,0.4,1.3,0.5,2.1,0.5s1.8-0.1,2.4-0.5s1.1-0.9,1.5-1.4c0.4-0.6,0.6-1.3,0.9-2c0.1-0.8,0.3-1.5,0.3-2.3
			s-0.1-1.5-0.3-2.3c-0.1-0.8-0.5-1.4-0.9-2c-0.4-0.6-0.9-1-1.5-1.4c-0.6-0.4-1.4-0.5-2.4-0.5c-0.9,0-1.5,0.1-2.1,0.5
			s-1.1,0.9-1.5,1.4c-0.4,0.6-0.6,1.3-0.9,2c-0.1,0.8-0.3,1.5-0.3,2.3S769.1,1989.3,769.3,1990z"/>
	</g>
</g>
<g>
	<path fill="#6D6E71" d="M326.1,1844v-10.8c0-0.2-0.2-0.4-0.4-0.4H308c-0.2,0-0.4,0.2-0.4,0.4v11.6c0,0.2,0.2,0.4,0.4,0.4l17.7-0.8
		C325.9,1844.3,326.1,1844.2,326.1,1844z"/>
	<polyline fill="#808285" points="319.6,1832.5 319.7,1833 319.7,1829.9 314,1829.9 314,1833.1 319.7,1833 	"/>
	<polyline fill="#808285" points="129.2,1830.8 129.1,1831.3 129.1,1828.2 134.7,1828.2 134.7,1831.4 129.1,1831.3 	"/>
	<path fill="#6D6E71" d="M122.7,1842.4v-10.9c0-0.2,0.1-0.3,0.3-0.3h17.8c0.2,0,0.3,0.1,0.3,0.3v11.7c0,0.2-0.2,0.3-0.3,0.3
		l-17.8-0.8C122.8,1842.7,122.7,1842.5,122.7,1842.4z"/>
	<path fill="#E6E7E8" d="M135.8,1822.6l78.7,3.2c0,0,1.6,0.7-1.6,1l-63.1,0.7l-14.3-3.7L135.8,1822.6z"/>
	<path fill="#58595B" d="M135.2,1828.6h-6.6c-0.2,0-0.4-0.2-0.4-0.4v-2.9c0-0.2,0.2-0.4,0.4-0.4h6.6c0.2,0,0.4,0.2,0.4,0.4v2.9
		C135.7,1828.4,135.5,1828.6,135.2,1828.6z"/>
	<path fill="#BCBEC0" d="M129.7,1822.2c0,0-13.9-2.4-19.6-2.2l-58.1-0.5c0,0-2.5-0.2-1.9,0.9l62.2,9.4c0,0,6.3,0.6,9.2-1l9-3.7
		L129.7,1822.2z"/>
	<path fill="#808285" d="M135,1825.2h-6.1c-1,0-1.8-0.8-1.8-1.8l0,0c0-1,0.8-1.8,1.8-1.8h6.1c1,0,1.8,0.8,1.8,1.8l0,0
		C136.8,1824.4,136,1825.2,135,1825.2z"/>
	<g opacity="0.26">
		<line x1="132.1" y1="1831.5" x2="129.1" y2="1831.4"/>
		<polyline points="132.1,1831.5 129.1,1831.4 129.1,1828.3 132.1,1828.3 		"/>
		<path d="M132.2,1842.9l-9.1-0.1c-0.2,0-0.3-0.2-0.3-0.3v-10.9c0-0.2,0.1-0.3,0.3-0.3h9.1"/>
		<path d="M132.1,1828.7l-3.6,0c-0.2,0-0.3-0.1-0.3-0.3v-3.2c0-0.2,0.1-0.3,0.3-0.3l3.6,0"/>
		<path d="M132.1,1825.3l-3.7,0c-0.7,0-1.3-0.6-1.3-1.3v-0.9c0-0.7,0.6-1.3,1.3-1.3l3.7,0"/>
	</g>
	<path fill="#58595B" d="M314.1,1830.2h5.5c0.5,0,0.9-0.4,0.9-0.9v-1.9c0-0.5-0.4-0.9-0.9-0.9h-5.5c-0.5,0-0.9,0.4-0.9,0.9v1.9
		C313.2,1829.8,313.6,1830.2,314.1,1830.2z"/>
	<path fill="#E6E7E8" d="M313.2,1824.3l-78.7,3.2c0,0-1.6,0.7,1.6,1l63.1,0.7l14.3-3.7L313.2,1824.3z"/>
	<path fill="#939598" d="M124.9,1842c0,0-2.9-0.3-4.7,1.6l-2.7,2.6c0,0-0.9,0.9-0.4,2.8l2.3,6.1c0,0,0.2,1.6,2.8,2.2
		c0.1,0,0.3,0.1,0.4,0.1l41.2,1.4c0.1,0,0.2,0,0.3,0c0.5-0.1,2.8-0.2,4.9,1.6c0.1,0.1,0.1,0.1,0.2,0.2l39.2,23.6
		c0.3,0.2,0.6,0.3,0.9,0.3l39,0.7c0.4,0,0.7-0.1,1-0.3l41.3-24.5c0,0,0.1,0,0.1-0.1c0.3-0.2,2-1,4.1-1l40.1-1.1c0,0,1.7,0,2.9-0.4
		c0.5-0.2,0.8-0.5,1-1c0.4-1,1.4-3.2,2-4.7c0,0,2.2-4-3.4-7.2c-0.1-0.1-0.2-0.1-0.3-0.1c-0.5-0.2-2.2-0.8-4-0.7l-35.7,0.7
		c0,0-2.6,0.1-5.3,1c-0.1,0-0.7,0.2-0.8,0.3c0,0-27.4,8.5-27.4,8.5s-6.9,2.3-11-0.1c0,0-2.6-1.1-4.2-1.1l-39.9-0.2
		c0,0-2.2-0.1-4.2,1.1c0,0-3.3,1.5-6.4,0.8l-31.2-9.4c-0.1,0-0.2-0.1-0.3-0.1c-0.7-0.4-4.7-2.2-7.3-2.1L124.9,1842z"/>
	<polygon fill="#E6E7E8" points="206.9,1853.4 215.2,1843.5 242.8,1843.6 251.4,1853.7 	"/>
	<path opacity="0.41" fill="#F1F2F2" d="M340.9,1848.2l-43.7,0.8c-3.3-0.3-8.5,1.6-8.5,1.6l-28.1,10.5c-4.4,2.6-11.6,3-11.6,3
		l-38.1-0.4c-4.9,0-9.3-1.7-9.3-1.7l-31.7-11.9c-7-2.4-12.6-2.7-12.6-2.7l-40.2-0.4c0,0,0.1-0.5,0.9-1.3l2.6-2.4c0,0,1-1,1.7-1.1
		c0.7-0.1,2.3-0.2,2.3-0.2l35,1.3c0,0,3.5,0.2,7.4,2l30.7,9.5c0,0,3,1.3,7.3-0.5c0,0,2.2-1.3,3.5-1.1l43.1,0.6c0,0,1.1,0,3.3,1.4
		c0,0,2.7,0.9,5.6,0.2l31.9-9.6c0,0,2.2-1.2,7.3-1l33.7-0.8C333.3,1844.1,338.8,1843.5,340.9,1848.2z"/>
	<path fill="#E6E7E8" d="M122.7,1857.6l3.8,5.6c0,0,0.1,0,0.1,0l31,1.2c0,0,0,0,0.1,0l8.8-5.4c0.1-0.1,0.1-0.2-0.1-0.2l-3-0.3
		c0,0,0,0,0,0l-40.7-1.2C122.7,1857.4,122.6,1857.5,122.7,1857.6z"/>
	<path fill="#E6E7E8" d="M292.3,1859.5l8.4,6.1c0,0,0,0,0,0l30.5-0.9c0,0,0,0,0.1,0l5.5-6.7c0-0.1,0-0.1-0.1-0.1l-42.4,1.4l-1.9,0
		C292.3,1859.4,292.2,1859.5,292.3,1859.5z"/>
	<path fill="#BCBEC0" d="M164.7,1860.1l11.7,8.4l-28.2,77.2c0,0-0.7,2.3,1.8,3.7c0,0,3.3,1.8,5.3-1.6l21.9-55c0,0,1.7-6,6.2-8.2
		l14.4-6.7l-7.4-4.8l-15.1,10.3l6.6-15.4l-15.5-9.2L164.7,1860.1z"/>
	<path opacity="0.48" fill="#231F20" d="M175.5,1883.3l6.6-15.4l-15.5-9.2l-1.8,1.2l11.7,8.4l-28.2,77.2c0,0-0.7,2.3,1.8,3.7"/>
	<path fill="#BCBEC0" d="M294.6,1861.2l-11.9,7.7l26,76.3c0,0,0.8,3.4-1.9,4.7c0,0-3.4,1.1-5.3-2.9l-19.9-52.6c0,0-2.6-6.7-7.7-9.2
		l-13.4-7l7.8-4.7l14.6,10l-6.2-15l15.3-9.2L294.6,1861.2z"/>
	<path fill="#BCBEC0" d="M318.6,1823.6c0,0,13.9-2.4,19.6-2.2l58.1-0.5c0,0,2.5-0.2,1.9,0.9l-62.2,9.4c0,0-6.3,0.6-9.2-1l-9-3.7
		L318.6,1823.6z"/>
	<path fill="#808285" d="M313.8,1826.8h6.1c1,0,1.8-0.8,1.8-1.8l0,0c0-1-0.8-1.8-1.8-1.8h-6.1c-1,0-1.8,0.8-1.8,1.8l0,0
		C312,1826,312.8,1826.8,313.8,1826.8z"/>
	<polygon fill="#FFFFFF" points="237.8,1843.6 241.4,1843.6 247.9,1853.7 241.3,1853.5 	"/>
	<polygon fill="#FFFFFF" points="220.3,1843.5 216.7,1843.5 210.5,1853.2 216.8,1853.3 	"/>
	<g opacity="0.26">
		<line x1="316.5" y1="1833.1" x2="319.6" y2="1833"/>
		<polyline points="316.5,1833.1 319.6,1833 319.6,1829.9 316.6,1829.9 		"/>
		<path d="M316.5,1844.5l9.3-0.1c0.2,0,0.3-0.2,0.3-0.3v-10.9c0-0.2-0.1-0.3-0.3-0.3h-9.3"/>
		<path d="M316.6,1830.3l3.7,0c0.2,0,0.3-0.1,0.3-0.3v-3.2c0-0.2-0.1-0.3-0.3-0.3l-3.7,0"/>
		<path d="M316.6,1826.9l3.7,0c0.7,0,1.4-0.6,1.4-1.3v-0.9c0-0.7-0.6-1.3-1.4-1.3l-3.7,0"/>
	</g>
	<polyline opacity="0.74" fill="#FFFFFF" points="137.7,1857.8 122.5,1857.4 126.5,1863.2 140.8,1863.7 	"/>
	<polyline opacity="0.74" fill="#FFFFFF" points="321.5,1858.5 336.8,1858 331.3,1864.8 318,1865.2 	"/>
	<path opacity="0.48" fill="#231F20" d="M282.9,1883.3l-6.2-15l15.3-9.2l2.6,1.9l-11.9,7.7l26,76.3c0,0,0.8,3.4-1.9,4.7"/>
</g>
</svg>
