<?xml version="1.0" encoding="utf-8"?>
<!-- Generator: Adobe Illustrator 18.1.1, SVG Export Plug-In . SVG Version: 6.00 Build 0)  -->
<svg version="1.1" id="Layer_1" xmlns="http://www.w3.org/2000/svg" xmlns:xlink="http://www.w3.org/1999/xlink" x="0px" y="0px"
	 viewBox="0 0 250 38" enable-background="new 0 0 250 38" xml:space="preserve">
<g>
	<g>
		<g>
			<g>
				<g>
					<polygon fill="#FFFFFF" points="44.6,23.6 44.6,29.6 50.6,29.6 					"/>
				</g>
				<g>
					<path fill="#FFFFFF" d="M61.4,29.6l-7.6-7.6c4.1-0.2,7.3-3.5,7.3-7.6c0-4.2-3.4-7.6-7.6-7.6h-8.9v3.8h8.9
						c2.1,0,3.8,1.7,3.8,3.8s-1.7,3.8-3.8,3.8h-8.9L56,29.6H61.4z"/>
				</g>
			</g>
		</g>
		<g>
			<g>
				<g>
					<polygon fill="#FFFFFF" points="3,12.9 3,6.8 9,6.8 					"/>
				</g>
				<g>
					<path fill="#FFFFFF" d="M19.7,6.8l-7.6,7.6c4.1,0.2,7.3,3.5,7.3,7.6c0,4.2-3.4,7.6-7.6,7.6H3v-3.8h8.9c2.1,0,3.8-1.7,3.8-3.8
						c0-2.1-1.7-3.8-3.8-3.8H3L14.3,6.8H19.7z"/>
				</g>
			</g>
		</g>
		<path fill="#FFFFFF" d="M29.4,6.8h-6.1v3.8h6.1c4.2,0,7.6,3.4,7.6,7.6c0,4.2-3.4,7.6-7.6,7.6h-2.2v-7.6h-3.8v11.4h6.1
			c6.3,0,11.4-5.1,11.4-11.4C40.8,11.9,35.7,6.8,29.4,6.8z"/>
	</g>
	<rect x="74.3" y="3.5" opacity="0.29" fill="#FFFFFF" width="1.4" height="31"/>
	<g>
		<path fill="#FFFFFF" d="M89.6,29.6V7h11.1c1.8,0,3.2,0.5,4.3,1.5c1.1,1,1.6,2.3,1.6,3.9V24c0,1.7-0.5,3-1.6,4
			c-1.1,1-2.5,1.5-4.3,1.5H89.6z M93.1,26.5h7c1.1,0,1.8-0.3,2.3-0.9c0.5-0.6,0.7-1.4,0.7-2.5v-9.8c0-1.1-0.2-1.9-0.7-2.5
			c-0.5-0.6-1.2-0.9-2.3-0.9h-7V26.5z"/>
		<path fill="#FFFFFF" d="M112.6,29.6V7h11c1.8,0,3.3,0.5,4.3,1.4c1.1,0.9,1.6,2.2,1.6,3.9v2.4c0,1.5-0.4,2.7-1.2,3.7
			c-0.8,1-1.9,1.6-3.5,1.7l5.4,9.5h-4l-4.9-9.1H116v9.1H112.6z M116,17.4h6.5c1.3,0,2.1-0.2,2.6-0.7c0.5-0.5,0.8-1.3,0.8-2.4V13
			c0-1-0.2-1.8-0.7-2.3c-0.5-0.5-1.3-0.7-2.4-0.7H116V17.4z"/>
		<path fill="#FFFFFF" d="M134.3,24.2V12.4c0-1.7,0.5-3,1.6-3.9c1-1,2.5-1.5,4.3-1.5h5.3c1.8,0,3.2,0.5,4.3,1.5s1.6,2.3,1.6,3.9
			v11.9c0,1.7-0.5,3-1.6,3.9c-1.1,1-2.5,1.4-4.3,1.4h-5.3c-1.8,0-3.2-0.5-4.3-1.4C134.9,27.2,134.3,25.9,134.3,24.2z M137.8,23.2
			c0,1.1,0.2,1.9,0.7,2.5c0.4,0.6,1.2,0.9,2.3,0.9h4.1c1.1,0,1.8-0.3,2.3-0.9c0.4-0.6,0.7-1.4,0.7-2.5v-9.8c0-1.1-0.2-1.9-0.7-2.5
			c-0.4-0.6-1.2-0.9-2.3-0.9h-4.1c-1.1,0-1.8,0.3-2.3,0.9c-0.4,0.6-0.7,1.4-0.7,2.5V23.2z"/>
		<path fill="#FFFFFF" d="M157.3,29.6V7h4.5l9.2,17.6V7h3.3v22.6h-4.3l-9.5-18.3v18.3H157.3z"/>
		<path fill="#FFFFFF" d="M180.7,29.6V7h15.5V10h-12v6.5h10.3v3.1h-10.3v6.9h12v3.1H180.7z"/>
		<path fill="#FFFFFF" d="M201.6,29.6V7h3.5v9.7h3.7l6.3-9.7h4.2l-7.6,11.1l7.6,11.5h-4.3l-6.2-9.8h-3.7v9.8H201.6z"/>
		<path fill="#FFFFFF" d="M223.8,29.6V7h3.5v22.6H223.8z"/>
		<path fill="#FFFFFF" d="M232,10V7H249V10h-6.8v19.6h-3.5V10H232z"/>
	</g>
</g>
</svg>
